<svg width="1440" height="900" viewBox="0 0 1440 900" fill="none" xmlns="http://www.w3.org/2000/svg">
<rect width="1440" height="900" fill="#0F0F0F"/>
<g clip-path="url(#clip0_1_3)">
<path d="M520.911 346.687V338.445H526.87V339.418H522.001V341.942H526.561V342.909H522.001V345.714H527.061V346.687H520.911ZM528.439 346.687V340.716H529.35V341.565C529.788 340.909 530.421 340.581 531.25 340.581C531.61 340.581 531.939 340.647 532.239 340.778C532.543 340.906 532.77 341.074 532.92 341.284C533.069 341.494 533.174 341.743 533.234 342.032C533.272 342.219 533.291 342.547 533.291 343.016V346.687H532.279V343.055C532.279 342.643 532.239 342.335 532.161 342.133C532.082 341.927 531.941 341.764 531.739 341.644C531.54 341.52 531.306 341.458 531.036 341.458C530.605 341.458 530.232 341.595 529.917 341.869C529.606 342.142 529.451 342.662 529.451 343.426V346.687H528.439ZM538.722 346.687V345.934C538.343 346.526 537.786 346.822 537.052 346.822C536.576 346.822 536.137 346.691 535.736 346.428C535.339 346.166 535.03 345.801 534.809 345.332C534.591 344.86 534.482 344.318 534.482 343.707C534.482 343.111 534.582 342.572 534.78 342.088C534.979 341.601 535.277 341.228 535.674 340.969C536.072 340.711 536.516 340.581 537.007 340.581C537.367 340.581 537.687 340.658 537.968 340.812C538.249 340.962 538.478 341.159 538.654 341.402V338.445H539.66V346.687H538.722ZM535.523 343.707C535.523 344.472 535.684 345.043 536.006 345.422C536.328 345.801 536.709 345.99 537.147 345.99C537.59 345.99 537.964 345.81 538.272 345.45C538.583 345.087 538.738 344.534 538.738 343.792C538.738 342.974 538.581 342.375 538.266 341.992C537.951 341.61 537.563 341.419 537.102 341.419C536.653 341.419 536.276 341.603 535.972 341.97C535.672 342.337 535.523 342.916 535.523 343.707ZM545.344 344.764L546.39 344.893C546.225 345.504 545.92 345.979 545.474 346.316C545.028 346.653 544.458 346.822 543.765 346.822C542.891 346.822 542.198 346.554 541.684 346.018C541.175 345.478 540.92 344.723 540.92 343.752C540.92 342.748 541.178 341.968 541.696 341.413C542.213 340.859 542.884 340.581 543.708 340.581C544.507 340.581 545.159 340.853 545.665 341.397C546.171 341.94 546.424 342.705 546.424 343.69C546.424 343.75 546.422 343.84 546.418 343.96H541.965C542.003 344.616 542.188 345.118 542.522 345.467C542.856 345.815 543.272 345.99 543.77 345.99C544.141 345.99 544.458 345.892 544.72 345.697C544.983 345.503 545.191 345.191 545.344 344.764ZM542.022 343.128H545.356C545.311 342.626 545.183 342.249 544.973 341.998C544.651 341.608 544.233 341.413 543.72 341.413C543.255 341.413 542.863 341.569 542.545 341.88C542.23 342.191 542.055 342.607 542.022 343.128ZM547.655 346.687V340.716H548.566V341.621C548.798 341.198 549.012 340.919 549.207 340.784C549.405 340.649 549.623 340.581 549.859 340.581C550.2 340.581 550.547 340.69 550.899 340.907L550.55 341.846C550.303 341.7 550.056 341.627 549.808 341.627C549.587 341.627 549.388 341.695 549.212 341.829C549.036 341.961 548.911 342.144 548.836 342.38C548.723 342.74 548.667 343.134 548.667 343.561V346.687H547.655ZM555.588 344.764L556.633 344.893C556.469 345.504 556.163 345.979 555.717 346.316C555.271 346.653 554.701 346.822 554.008 346.822C553.135 346.822 552.441 346.554 551.928 346.018C551.418 345.478 551.163 344.723 551.163 343.752C551.163 342.748 551.422 341.968 551.939 341.413C552.456 340.859 553.127 340.581 553.952 340.581C554.75 340.581 555.402 340.853 555.908 341.397C556.414 341.94 556.667 342.705 556.667 343.69C556.667 343.75 556.665 343.84 556.662 343.96H552.209C552.246 344.616 552.432 345.118 552.765 345.467C553.099 345.815 553.515 345.99 554.014 345.99C554.385 345.99 554.701 345.892 554.964 345.697C555.226 345.503 555.434 345.191 555.588 344.764ZM552.265 343.128H555.599C555.554 342.626 555.427 342.249 555.217 341.998C554.894 341.608 554.476 341.413 553.963 341.413C553.498 341.413 553.107 341.569 552.788 341.88C552.473 342.191 552.299 342.607 552.265 343.128ZM561.806 344.5L562.801 344.629C562.692 345.315 562.413 345.853 561.963 346.243C561.517 346.629 560.968 346.822 560.316 346.822C559.499 346.822 558.841 346.556 558.343 346.024C557.848 345.488 557.6 344.721 557.6 343.724C557.6 343.079 557.707 342.515 557.921 342.032C558.135 341.548 558.459 341.187 558.894 340.947C559.332 340.703 559.808 340.581 560.322 340.581C560.97 340.581 561.5 340.746 561.913 341.076C562.325 341.402 562.589 341.867 562.705 342.47L561.721 342.622C561.628 342.221 561.461 341.919 561.221 341.717C560.985 341.515 560.698 341.413 560.361 341.413C559.851 341.413 559.437 341.597 559.118 341.964C558.8 342.328 558.641 342.905 558.641 343.696C558.641 344.498 558.794 345.081 559.102 345.444C559.409 345.808 559.81 345.99 560.305 345.99C560.702 345.99 561.034 345.868 561.3 345.624C561.566 345.381 561.735 345.006 561.806 344.5ZM559.461 347.44L559.754 346.445H560.507L560.322 347.047C560.64 347.084 560.88 347.182 561.041 347.339C561.202 347.5 561.283 347.678 561.283 347.873C561.283 348.154 561.148 348.402 560.878 348.615C560.608 348.833 560.202 348.941 559.658 348.941C559.351 348.941 559.081 348.919 558.849 348.874L558.91 348.216C559.15 348.231 559.326 348.239 559.439 348.239C559.791 348.239 560.039 348.19 560.181 348.092C560.29 348.017 560.344 347.926 560.344 347.817C560.344 347.749 560.322 347.69 560.277 347.637C560.235 347.585 560.157 347.54 560.04 347.502C559.924 347.465 559.731 347.444 559.461 347.44ZM563.29 343.702C563.29 342.596 563.597 341.777 564.212 341.245C564.726 340.802 565.351 340.581 566.09 340.581C566.911 340.581 567.582 340.851 568.103 341.391C568.623 341.927 568.884 342.669 568.884 343.617C568.884 344.386 568.768 344.991 568.535 345.433C568.307 345.872 567.971 346.213 567.529 346.456C567.091 346.7 566.611 346.822 566.09 346.822C565.254 346.822 564.577 346.554 564.06 346.018C563.547 345.482 563.29 344.71 563.29 343.702ZM564.33 343.702C564.33 344.466 564.497 345.04 564.83 345.422C565.164 345.801 565.584 345.99 566.09 345.99C566.592 345.99 567.01 345.799 567.344 345.416C567.677 345.034 567.844 344.451 567.844 343.668C567.844 342.929 567.675 342.371 567.338 341.992C567.004 341.61 566.588 341.419 566.09 341.419C565.584 341.419 565.164 341.608 564.83 341.987C564.497 342.365 564.33 342.937 564.33 343.702ZM577.154 346.687V345.934C576.776 346.526 576.219 346.822 575.484 346.822C575.008 346.822 574.57 346.691 574.169 346.428C573.771 346.166 573.462 345.801 573.241 345.332C573.024 344.86 572.915 344.318 572.915 343.707C572.915 343.111 573.014 342.572 573.213 342.088C573.412 341.601 573.71 341.228 574.107 340.969C574.504 340.711 574.948 340.581 575.439 340.581C575.799 340.581 576.12 340.658 576.401 340.812C576.682 340.962 576.91 341.159 577.087 341.402V338.445H578.093V346.687H577.154ZM573.955 343.707C573.955 344.472 574.116 345.043 574.439 345.422C574.761 345.801 575.141 345.99 575.58 345.99C576.022 345.99 576.397 345.81 576.704 345.45C577.015 345.087 577.171 344.534 577.171 343.792C577.171 342.974 577.014 342.375 576.699 341.992C576.384 341.61 575.996 341.419 575.535 341.419C575.085 341.419 574.708 341.603 574.405 341.97C574.105 342.337 573.955 342.916 573.955 343.707ZM583.777 344.764L584.823 344.893C584.658 345.504 584.352 345.979 583.906 346.316C583.46 346.653 582.89 346.822 582.197 346.822C581.324 346.822 580.63 346.554 580.117 346.018C579.607 345.478 579.352 344.723 579.352 343.752C579.352 342.748 579.611 341.968 580.128 341.413C580.645 340.859 581.316 340.581 582.141 340.581C582.939 340.581 583.591 340.853 584.097 341.397C584.603 341.94 584.856 342.705 584.856 343.69C584.856 343.75 584.854 343.84 584.851 343.96H580.398C580.435 344.616 580.621 345.118 580.955 345.467C581.288 345.815 581.704 345.99 582.203 345.99C582.574 345.99 582.89 345.892 583.153 345.697C583.415 345.503 583.623 345.191 583.777 344.764ZM580.454 343.128H583.788C583.743 342.626 583.616 342.249 583.406 341.998C583.083 341.608 582.666 341.413 582.152 341.413C581.687 341.413 581.296 341.569 580.977 341.88C580.662 342.191 580.488 342.607 580.454 343.128ZM593.391 344.764L594.436 344.893C594.271 345.504 593.966 345.979 593.52 346.316C593.074 346.653 592.504 346.822 591.811 346.822C590.938 346.822 590.244 346.554 589.731 346.018C589.221 345.478 588.966 344.723 588.966 343.752C588.966 342.748 589.225 341.968 589.742 341.413C590.259 340.859 590.93 340.581 591.755 340.581C592.553 340.581 593.205 340.853 593.711 341.397C594.217 341.94 594.47 342.705 594.47 343.69C594.47 343.75 594.468 343.84 594.464 343.96H590.012C590.049 344.616 590.235 345.118 590.568 345.467C590.902 345.815 591.318 345.99 591.816 345.99C592.188 345.99 592.504 345.892 592.767 345.697C593.029 345.503 593.237 345.191 593.391 344.764ZM590.068 343.128H593.402C593.357 342.626 593.229 342.249 593.02 341.998C592.697 341.608 592.279 341.413 591.766 341.413C591.301 341.413 590.909 341.569 590.591 341.88C590.276 342.191 590.102 342.607 590.068 343.128ZM595.319 344.213V343.196H598.428V344.213H595.319ZM599.547 346.687V340.716H600.452V341.554C600.639 341.262 600.889 341.027 601.2 340.851C601.511 340.671 601.865 340.581 602.262 340.581C602.705 340.581 603.066 340.673 603.347 340.857C603.632 341.04 603.833 341.297 603.949 341.627C604.421 340.93 605.036 340.581 605.793 340.581C606.385 340.581 606.841 340.746 607.159 341.076C607.478 341.402 607.637 341.906 607.637 342.588V346.687H606.631V342.926C606.631 342.521 606.597 342.23 606.529 342.054C606.466 341.874 606.348 341.73 606.175 341.621C606.003 341.513 605.8 341.458 605.568 341.458C605.148 341.458 604.8 341.599 604.522 341.88C604.245 342.157 604.106 342.603 604.106 343.218V346.687H603.094V342.808C603.094 342.358 603.012 342.021 602.847 341.796C602.682 341.571 602.412 341.458 602.037 341.458C601.753 341.458 601.488 341.533 601.245 341.683C601.005 341.833 600.831 342.052 600.722 342.341C600.613 342.63 600.559 343.046 600.559 343.589V346.687H599.547ZM613.034 345.95C612.659 346.269 612.298 346.494 611.949 346.625C611.604 346.756 611.233 346.822 610.836 346.822C610.18 346.822 609.676 346.663 609.324 346.344C608.971 346.022 608.795 345.611 608.795 345.113C608.795 344.82 608.861 344.554 608.992 344.314C609.127 344.071 609.301 343.876 609.515 343.73C609.732 343.584 609.976 343.473 610.246 343.398C610.444 343.346 610.744 343.295 611.145 343.246C611.962 343.149 612.564 343.033 612.95 342.898C612.954 342.759 612.955 342.671 612.955 342.633C612.955 342.221 612.86 341.931 612.669 341.762C612.41 341.533 612.026 341.419 611.516 341.419C611.04 341.419 610.688 341.503 610.459 341.672C610.234 341.837 610.068 342.131 609.959 342.555L608.969 342.42C609.059 341.996 609.207 341.655 609.414 341.397C609.62 341.134 609.918 340.934 610.307 340.795C610.697 340.653 611.149 340.581 611.662 340.581C612.172 340.581 612.586 340.641 612.905 340.761C613.223 340.881 613.458 341.033 613.608 341.217C613.758 341.397 613.862 341.625 613.922 341.903C613.956 342.075 613.973 342.386 613.973 342.836V344.185C613.973 345.126 613.994 345.722 614.035 345.973C614.08 346.22 614.166 346.458 614.294 346.687H613.237C613.132 346.477 613.064 346.232 613.034 345.95ZM612.95 343.69C612.583 343.84 612.032 343.968 611.297 344.073C610.881 344.133 610.587 344.2 610.414 344.275C610.242 344.35 610.109 344.461 610.015 344.607C609.921 344.749 609.875 344.908 609.875 345.085C609.875 345.354 609.976 345.579 610.178 345.759C610.384 345.939 610.684 346.029 611.078 346.029C611.467 346.029 611.814 345.945 612.118 345.776C612.421 345.604 612.644 345.369 612.787 345.073C612.895 344.845 612.95 344.507 612.95 344.061V343.69ZM615.553 339.609V338.445H616.565V339.609H615.553ZM615.553 346.687V340.716H616.565V346.687H615.553ZM618.088 346.687V338.445H619.1V346.687H618.088Z" fill="white"/>
<rect x="521" y="357.201" width="413" height="61.486" rx="3" fill="#1C1C1F"/>
<path d="M539.1 393.944V392.897C538.574 393.72 537.8 394.131 536.78 394.131C536.118 394.131 535.509 393.949 534.951 393.585C534.399 393.22 533.97 392.712 533.662 392.061C533.36 391.405 533.209 390.652 533.209 389.803C533.209 388.975 533.347 388.225 533.623 387.553C533.899 386.876 534.313 386.358 534.866 385.999C535.418 385.639 536.035 385.46 536.717 385.46C537.217 385.46 537.662 385.566 538.053 385.78C538.444 385.988 538.761 386.262 539.006 386.6V382.491H540.405V393.944H539.1ZM534.655 389.803C534.655 390.866 534.879 391.66 535.326 392.186C535.774 392.712 536.303 392.975 536.912 392.975C537.527 392.975 538.048 392.725 538.475 392.225C538.907 391.72 539.123 390.952 539.123 389.92C539.123 388.785 538.905 387.952 538.467 387.42C538.03 386.889 537.491 386.624 536.85 386.624C536.225 386.624 535.701 386.879 535.28 387.389C534.863 387.9 534.655 388.704 534.655 389.803ZM542.631 384.108V382.491H544.037V384.108H542.631ZM542.631 393.944V385.647H544.037V393.944H542.631ZM551.6 392.92C551.079 393.363 550.576 393.676 550.092 393.858C549.613 394.04 549.097 394.131 548.545 394.131C547.634 394.131 546.933 393.91 546.444 393.467C545.954 393.019 545.709 392.449 545.709 391.756C545.709 391.35 545.8 390.98 545.983 390.647C546.17 390.309 546.412 390.038 546.709 389.835C547.011 389.631 547.35 389.478 547.725 389.374C548.001 389.301 548.418 389.23 548.975 389.163C550.11 389.027 550.946 388.866 551.483 388.678C551.488 388.486 551.491 388.363 551.491 388.311C551.491 387.738 551.358 387.335 551.092 387.1C550.733 386.782 550.199 386.624 549.491 386.624C548.829 386.624 548.339 386.741 548.022 386.975C547.709 387.204 547.477 387.613 547.326 388.202L545.951 388.014C546.076 387.426 546.282 386.952 546.569 386.592C546.855 386.228 547.269 385.949 547.811 385.756C548.352 385.559 548.98 385.46 549.694 385.46C550.402 385.46 550.977 385.543 551.42 385.71C551.863 385.876 552.188 386.087 552.397 386.342C552.605 386.592 552.751 386.91 552.834 387.295C552.881 387.535 552.905 387.967 552.905 388.592V390.467C552.905 391.775 552.933 392.603 552.991 392.952C553.053 393.295 553.173 393.626 553.35 393.944H551.881C551.735 393.652 551.642 393.311 551.6 392.92ZM551.483 389.78C550.972 389.988 550.207 390.165 549.186 390.311C548.608 390.394 548.199 390.488 547.959 390.592C547.72 390.697 547.535 390.85 547.405 391.053C547.274 391.251 547.209 391.473 547.209 391.717C547.209 392.092 547.35 392.405 547.631 392.655C547.918 392.905 548.334 393.03 548.881 393.03C549.423 393.03 549.905 392.913 550.326 392.678C550.748 392.439 551.058 392.113 551.256 391.702C551.407 391.384 551.483 390.915 551.483 390.295V389.78ZM554.53 391.467L555.92 391.249C555.998 391.806 556.214 392.233 556.569 392.53C556.928 392.827 557.428 392.975 558.069 392.975C558.714 392.975 559.194 392.845 559.506 392.585C559.819 392.319 559.975 392.009 559.975 391.655C559.975 391.337 559.837 391.087 559.561 390.905C559.368 390.78 558.889 390.621 558.123 390.428C557.092 390.168 556.376 389.944 555.975 389.756C555.579 389.564 555.277 389.301 555.069 388.967C554.866 388.629 554.764 388.256 554.764 387.85C554.764 387.48 554.847 387.139 555.014 386.827C555.186 386.509 555.418 386.246 555.709 386.038C555.928 385.876 556.225 385.741 556.6 385.631C556.98 385.517 557.386 385.46 557.819 385.46C558.47 385.46 559.04 385.553 559.53 385.741C560.024 385.928 560.389 386.184 560.623 386.506C560.858 386.824 561.019 387.251 561.108 387.788L559.733 387.975C559.67 387.548 559.488 387.215 559.186 386.975C558.889 386.736 558.467 386.616 557.92 386.616C557.274 386.616 556.813 386.723 556.537 386.936C556.261 387.15 556.123 387.4 556.123 387.686C556.123 387.868 556.181 388.032 556.295 388.178C556.41 388.329 556.589 388.454 556.834 388.553C556.975 388.605 557.389 388.725 558.076 388.913C559.071 389.178 559.764 389.397 560.155 389.569C560.55 389.736 560.86 389.98 561.084 390.303C561.308 390.626 561.42 391.027 561.42 391.506C561.42 391.975 561.282 392.418 561.006 392.835C560.735 393.246 560.342 393.566 559.826 393.795C559.311 394.019 558.727 394.131 558.076 394.131C556.998 394.131 556.175 393.907 555.608 393.46C555.045 393.012 554.686 392.348 554.53 391.467ZM571.108 392.67C570.769 393.061 570.389 393.376 569.967 393.616C569.55 393.85 569.131 393.967 568.709 393.967C568.246 393.967 567.795 393.832 567.358 393.561C566.92 393.29 566.563 392.874 566.287 392.311C566.017 391.749 565.881 391.131 565.881 390.46C565.881 389.631 566.092 388.803 566.514 387.975C566.941 387.142 567.47 386.517 568.1 386.1C568.73 385.684 569.342 385.475 569.936 385.475C570.389 385.475 570.821 385.595 571.233 385.835C571.644 386.069 571.998 386.428 572.295 386.913L572.561 385.702H573.959L572.834 390.944C572.678 391.673 572.6 392.077 572.6 392.155C572.6 392.295 572.652 392.418 572.756 392.522C572.866 392.621 572.996 392.67 573.147 392.67C573.423 392.67 573.785 392.512 574.233 392.194C574.826 391.777 575.295 391.22 575.639 390.522C575.988 389.819 576.162 389.095 576.162 388.35C576.162 387.48 575.938 386.668 575.491 385.913C575.048 385.157 574.384 384.553 573.498 384.1C572.618 383.647 571.644 383.42 570.576 383.42C569.358 383.42 568.243 383.707 567.233 384.28C566.227 384.848 565.446 385.665 564.889 386.733C564.337 387.795 564.061 388.936 564.061 390.155C564.061 391.431 564.337 392.53 564.889 393.452C565.446 394.374 566.248 395.053 567.295 395.491C568.347 395.934 569.511 396.155 570.787 396.155C572.152 396.155 573.295 395.926 574.217 395.467C575.139 395.009 575.829 394.452 576.287 393.795H577.701C577.436 394.342 576.98 394.9 576.334 395.467C575.688 396.035 574.92 396.483 574.03 396.811C573.139 397.144 572.066 397.311 570.811 397.311C569.655 397.311 568.587 397.163 567.608 396.866C566.634 396.569 565.803 396.121 565.116 395.522C564.428 394.928 563.91 394.243 563.561 393.467C563.123 392.483 562.905 391.42 562.905 390.28C562.905 389.009 563.165 387.798 563.686 386.647C564.321 385.236 565.222 384.155 566.389 383.405C567.561 382.655 568.98 382.28 570.647 382.28C571.938 382.28 573.097 382.545 574.123 383.077C575.155 383.603 575.967 384.389 576.561 385.436C577.066 386.337 577.319 387.316 577.319 388.374C577.319 389.884 576.787 391.225 575.725 392.397C574.777 393.449 573.741 393.975 572.616 393.975C572.256 393.975 571.964 393.92 571.741 393.811C571.522 393.702 571.36 393.545 571.256 393.342C571.188 393.212 571.139 392.988 571.108 392.67ZM567.326 390.553C567.326 391.267 567.496 391.822 567.834 392.217C568.173 392.613 568.561 392.811 568.998 392.811C569.29 392.811 569.597 392.725 569.92 392.553C570.243 392.376 570.55 392.116 570.842 391.772C571.139 391.428 571.381 390.993 571.569 390.467C571.756 389.936 571.85 389.405 571.85 388.874C571.85 388.165 571.673 387.616 571.319 387.225C570.97 386.835 570.543 386.639 570.037 386.639C569.704 386.639 569.389 386.725 569.092 386.897C568.8 387.064 568.517 387.335 568.241 387.71C567.964 388.085 567.743 388.54 567.576 389.077C567.41 389.613 567.326 390.105 567.326 390.553ZM579.084 394.631L580.451 394.835C580.509 395.256 580.668 395.564 580.928 395.756C581.277 396.017 581.754 396.147 582.358 396.147C583.009 396.147 583.511 396.017 583.866 395.756C584.22 395.496 584.459 395.131 584.584 394.663C584.657 394.376 584.691 393.775 584.686 392.858C584.071 393.582 583.306 393.944 582.389 393.944C581.248 393.944 580.366 393.532 579.741 392.71C579.116 391.887 578.803 390.9 578.803 389.749C578.803 388.957 578.946 388.228 579.233 387.561C579.519 386.889 579.933 386.371 580.475 386.006C581.022 385.642 581.662 385.46 582.397 385.46C583.376 385.46 584.183 385.855 584.819 386.647V385.647H586.116V392.819C586.116 394.111 585.983 395.025 585.717 395.561C585.457 396.103 585.04 396.53 584.467 396.842C583.899 397.155 583.199 397.311 582.366 397.311C581.376 397.311 580.576 397.087 579.967 396.639C579.358 396.197 579.063 395.527 579.084 394.631ZM580.248 389.647C580.248 390.736 580.464 391.53 580.897 392.03C581.329 392.53 581.871 392.78 582.522 392.78C583.168 392.78 583.709 392.532 584.147 392.038C584.584 391.538 584.803 390.756 584.803 389.694C584.803 388.678 584.576 387.913 584.123 387.397C583.675 386.881 583.134 386.624 582.498 386.624C581.873 386.624 581.342 386.879 580.905 387.389C580.467 387.894 580.248 388.647 580.248 389.647ZM588.248 393.944V385.647H589.506V386.811C589.767 386.405 590.113 386.079 590.545 385.835C590.977 385.585 591.47 385.46 592.022 385.46C592.636 385.46 593.139 385.587 593.53 385.842C593.925 386.098 594.204 386.454 594.366 386.913C595.022 385.944 595.876 385.46 596.928 385.46C597.751 385.46 598.384 385.689 598.826 386.147C599.269 386.6 599.491 387.301 599.491 388.249V393.944H598.092V388.717C598.092 388.155 598.045 387.751 597.951 387.506C597.863 387.256 597.699 387.056 597.459 386.905C597.22 386.754 596.938 386.678 596.616 386.678C596.032 386.678 595.548 386.874 595.162 387.264C594.777 387.65 594.584 388.269 594.584 389.124V393.944H593.178V388.553C593.178 387.928 593.063 387.46 592.834 387.147C592.605 386.835 592.23 386.678 591.709 386.678C591.313 386.678 590.946 386.782 590.608 386.991C590.274 387.199 590.032 387.504 589.881 387.905C589.73 388.306 589.655 388.884 589.655 389.639V393.944H588.248ZM606.991 392.92C606.47 393.363 605.967 393.676 605.483 393.858C605.004 394.04 604.488 394.131 603.936 394.131C603.024 394.131 602.324 393.91 601.834 393.467C601.345 393.019 601.1 392.449 601.1 391.756C601.1 391.35 601.191 390.98 601.373 390.647C601.561 390.309 601.803 390.038 602.1 389.835C602.402 389.631 602.741 389.478 603.116 389.374C603.392 389.301 603.808 389.23 604.366 389.163C605.501 389.027 606.337 388.866 606.873 388.678C606.879 388.486 606.881 388.363 606.881 388.311C606.881 387.738 606.748 387.335 606.483 387.1C606.123 386.782 605.589 386.624 604.881 386.624C604.22 386.624 603.73 386.741 603.412 386.975C603.1 387.204 602.868 387.613 602.717 388.202L601.342 388.014C601.467 387.426 601.673 386.952 601.959 386.592C602.246 386.228 602.66 385.949 603.201 385.756C603.743 385.559 604.371 385.46 605.084 385.46C605.793 385.46 606.368 385.543 606.811 385.71C607.254 385.876 607.579 386.087 607.787 386.342C607.996 386.592 608.142 386.91 608.225 387.295C608.272 387.535 608.295 387.967 608.295 388.592V390.467C608.295 391.775 608.324 392.603 608.381 392.952C608.444 393.295 608.563 393.626 608.741 393.944H607.272C607.126 393.652 607.032 393.311 606.991 392.92ZM606.873 389.78C606.363 389.988 605.597 390.165 604.576 390.311C603.998 390.394 603.589 390.488 603.35 390.592C603.11 390.697 602.925 390.85 602.795 391.053C602.665 391.251 602.6 391.473 602.6 391.717C602.6 392.092 602.741 392.405 603.022 392.655C603.308 392.905 603.725 393.03 604.272 393.03C604.813 393.03 605.295 392.913 605.717 392.678C606.139 392.439 606.449 392.113 606.647 391.702C606.798 391.384 606.873 390.915 606.873 390.295V389.78ZM610.491 384.108V382.491H611.897V384.108H610.491ZM610.491 393.944V385.647H611.897V393.944H610.491ZM614.014 393.944V382.491H615.42V393.944H614.014ZM618.006 393.944V392.342H619.608V393.944H618.006ZM627.475 390.905L628.858 391.085C628.707 392.038 628.319 392.785 627.694 393.327C627.074 393.863 626.311 394.131 625.405 394.131C624.269 394.131 623.355 393.762 622.662 393.022C621.975 392.277 621.631 391.212 621.631 389.827C621.631 388.931 621.78 388.147 622.076 387.475C622.373 386.803 622.824 386.301 623.428 385.967C624.037 385.629 624.699 385.46 625.412 385.46C626.313 385.46 627.05 385.689 627.623 386.147C628.196 386.6 628.563 387.246 628.725 388.085L627.358 388.295C627.227 387.738 626.996 387.319 626.662 387.038C626.334 386.756 625.936 386.616 625.467 386.616C624.759 386.616 624.183 386.871 623.741 387.381C623.298 387.887 623.076 388.689 623.076 389.788C623.076 390.902 623.29 391.712 623.717 392.217C624.144 392.723 624.701 392.975 625.389 392.975C625.941 392.975 626.402 392.806 626.772 392.467C627.142 392.129 627.376 391.608 627.475 390.905ZM629.537 389.795C629.537 388.259 629.964 387.121 630.819 386.381C631.532 385.767 632.402 385.46 633.428 385.46C634.569 385.46 635.501 385.835 636.225 386.585C636.949 387.329 637.311 388.361 637.311 389.678C637.311 390.746 637.149 391.587 636.826 392.202C636.509 392.811 636.043 393.285 635.428 393.624C634.819 393.962 634.152 394.131 633.428 394.131C632.267 394.131 631.326 393.759 630.608 393.014C629.894 392.269 629.537 391.197 629.537 389.795ZM630.983 389.795C630.983 390.858 631.214 391.655 631.678 392.186C632.142 392.712 632.725 392.975 633.428 392.975C634.126 392.975 634.707 392.71 635.17 392.178C635.634 391.647 635.866 390.837 635.866 389.749C635.866 388.723 635.631 387.947 635.162 387.42C634.699 386.889 634.121 386.624 633.428 386.624C632.725 386.624 632.142 386.887 631.678 387.413C631.214 387.939 630.983 388.733 630.983 389.795ZM638.967 393.944V385.647H640.225V386.811C640.485 386.405 640.832 386.079 641.264 385.835C641.696 385.585 642.188 385.46 642.741 385.46C643.355 385.46 643.858 385.587 644.248 385.842C644.644 386.098 644.923 386.454 645.084 386.913C645.741 385.944 646.595 385.46 647.647 385.46C648.47 385.46 649.102 385.689 649.545 386.147C649.988 386.6 650.209 387.301 650.209 388.249V393.944H648.811V388.717C648.811 388.155 648.764 387.751 648.67 387.506C648.582 387.256 648.418 387.056 648.178 386.905C647.938 386.754 647.657 386.678 647.334 386.678C646.751 386.678 646.267 386.874 645.881 387.264C645.496 387.65 645.303 388.269 645.303 389.124V393.944H643.897V388.553C643.897 387.928 643.782 387.46 643.553 387.147C643.324 386.835 642.949 386.678 642.428 386.678C642.032 386.678 641.665 386.782 641.326 386.991C640.993 387.199 640.751 387.504 640.6 387.905C640.449 388.306 640.373 388.884 640.373 389.639V393.944H638.967Z" fill="white"/>
<path d="M916 381.194L907 389.444L898 381.194" stroke="#8257E3" stroke-width="1.5" stroke-linecap="round" stroke-linejoin="round"/>
<path d="M898 381.194H916V393.944C916 394.143 915.921 394.334 915.78 394.474C915.64 394.615 915.449 394.694 915.25 394.694H898.75C898.551 394.694 898.36 394.615 898.22 394.474C898.079 394.334 898 394.143 898 393.944V381.194Z" stroke="#8257E3" stroke-width="1.5" stroke-linecap="round" stroke-linejoin="round"/>
<path d="M905.359 387.944L898.234 394.478" stroke="#8257E3" stroke-width="1.5" stroke-linecap="round" stroke-linejoin="round"/>
<path d="M915.766 394.478L908.641 387.944" stroke="#8257E3" stroke-width="1.5" stroke-linecap="round" stroke-linejoin="round"/>
<rect x="521" y="357.201" width="413" height="61.486" rx="3" stroke="#8257E3" stroke-width="2"/>
<path d="M520.517 439.039L521.546 438.949C521.595 439.361 521.707 439.7 521.883 439.967C522.063 440.229 522.341 440.443 522.715 440.607C523.09 440.769 523.512 440.849 523.98 440.849C524.396 440.849 524.764 440.787 525.082 440.664C525.401 440.54 525.637 440.371 525.791 440.158C525.948 439.94 526.027 439.704 526.027 439.449C526.027 439.191 525.952 438.966 525.802 438.775C525.652 438.58 525.405 438.417 525.06 438.286C524.839 438.199 524.35 438.066 523.593 437.886C522.835 437.703 522.305 437.53 522.001 437.369C521.608 437.163 521.314 436.908 521.119 436.605C520.928 436.297 520.832 435.954 520.832 435.576C520.832 435.16 520.95 434.772 521.186 434.412C521.422 434.048 521.767 433.773 522.221 433.586C522.674 433.398 523.178 433.304 523.733 433.304C524.344 433.304 524.882 433.404 525.347 433.602C525.815 433.797 526.175 434.086 526.426 434.468C526.677 434.85 526.812 435.283 526.831 435.767L525.785 435.846C525.729 435.325 525.538 434.931 525.212 434.665C524.889 434.399 524.411 434.266 523.778 434.266C523.118 434.266 522.637 434.388 522.333 434.631C522.033 434.871 521.883 435.162 521.883 435.503C521.883 435.799 521.99 436.042 522.204 436.234C522.414 436.425 522.961 436.621 523.846 436.824C524.734 437.022 525.343 437.197 525.673 437.347C526.152 437.568 526.507 437.849 526.735 438.19C526.964 438.527 527.078 438.917 527.078 439.359C527.078 439.798 526.953 440.212 526.702 440.602C526.45 440.988 526.089 441.29 525.616 441.507C525.148 441.721 524.619 441.827 524.031 441.827C523.285 441.827 522.659 441.719 522.153 441.501C521.651 441.284 521.256 440.958 520.967 440.523C520.682 440.085 520.532 439.59 520.517 439.039ZM532.352 441.687V440.81C531.887 441.485 531.255 441.822 530.457 441.822C530.105 441.822 529.775 441.754 529.468 441.619C529.164 441.485 528.937 441.316 528.787 441.113C528.641 440.907 528.538 440.656 528.478 440.36C528.437 440.161 528.416 439.847 528.416 439.416V435.716H529.428V439.028C529.428 439.556 529.449 439.912 529.49 440.096C529.554 440.362 529.689 440.572 529.895 440.726C530.101 440.875 530.356 440.95 530.659 440.95C530.963 440.95 531.248 440.874 531.514 440.72C531.78 440.563 531.968 440.351 532.076 440.085C532.189 439.815 532.245 439.425 532.245 438.915V435.716H533.257V441.687H532.352ZM538.744 440.95C538.369 441.269 538.008 441.494 537.659 441.625C537.314 441.756 536.943 441.822 536.546 441.822C535.89 441.822 535.386 441.663 535.033 441.344C534.681 441.022 534.505 440.611 534.505 440.113C534.505 439.82 534.571 439.554 534.702 439.314C534.837 439.071 535.011 438.876 535.225 438.73C535.442 438.584 535.686 438.473 535.955 438.398C536.154 438.346 536.454 438.295 536.855 438.246C537.672 438.149 538.274 438.033 538.66 437.898C538.663 437.759 538.665 437.671 538.665 437.633C538.665 437.221 538.57 436.931 538.379 436.762C538.12 436.533 537.736 436.419 537.226 436.419C536.75 436.419 536.398 436.503 536.169 436.672C535.944 436.837 535.777 437.131 535.669 437.555L534.679 437.42C534.769 436.996 534.917 436.655 535.123 436.397C535.33 436.134 535.628 435.934 536.017 435.795C536.407 435.653 536.859 435.581 537.372 435.581C537.882 435.581 538.296 435.641 538.615 435.761C538.933 435.881 539.168 436.033 539.317 436.217C539.467 436.397 539.572 436.625 539.632 436.903C539.666 437.075 539.683 437.386 539.683 437.836V439.185C539.683 440.126 539.704 440.722 539.745 440.973C539.79 441.22 539.876 441.458 540.003 441.687H538.946C538.841 441.477 538.774 441.232 538.744 440.95ZM538.66 438.69C538.292 438.84 537.741 438.968 537.007 439.073C536.591 439.133 536.297 439.2 536.124 439.275C535.952 439.35 535.819 439.461 535.725 439.607C535.631 439.749 535.584 439.908 535.584 440.085C535.584 440.354 535.686 440.579 535.888 440.759C536.094 440.939 536.394 441.029 536.788 441.029C537.177 441.029 537.524 440.945 537.828 440.776C538.131 440.604 538.354 440.369 538.497 440.073C538.605 439.845 538.66 439.507 538.66 439.061V438.69ZM544.057 439.905L545.058 439.747C545.114 440.148 545.269 440.456 545.524 440.669C545.783 440.883 546.143 440.99 546.604 440.99C547.068 440.99 547.413 440.896 547.638 440.709C547.863 440.518 547.975 440.295 547.975 440.04C547.975 439.811 547.876 439.631 547.677 439.5C547.539 439.41 547.194 439.296 546.643 439.157C545.901 438.97 545.386 438.808 545.097 438.673C544.812 438.535 544.595 438.346 544.445 438.106C544.299 437.862 544.226 437.594 544.226 437.302C544.226 437.036 544.286 436.79 544.405 436.565C544.529 436.337 544.696 436.147 544.906 435.997C545.063 435.881 545.277 435.784 545.547 435.705C545.82 435.623 546.113 435.581 546.424 435.581C546.892 435.581 547.303 435.649 547.655 435.784C548.011 435.919 548.273 436.102 548.442 436.335C548.611 436.563 548.727 436.871 548.791 437.257L547.801 437.392C547.756 437.084 547.625 436.844 547.408 436.672C547.194 436.5 546.89 436.413 546.497 436.413C546.032 436.413 545.7 436.49 545.502 436.644C545.303 436.798 545.204 436.977 545.204 437.184C545.204 437.315 545.245 437.433 545.327 437.538C545.41 437.647 545.539 437.736 545.715 437.808C545.817 437.845 546.115 437.931 546.609 438.066C547.325 438.257 547.824 438.415 548.105 438.539C548.39 438.658 548.613 438.835 548.774 439.067C548.935 439.299 549.016 439.588 549.016 439.933C549.016 440.27 548.916 440.589 548.718 440.889C548.523 441.185 548.24 441.415 547.869 441.58C547.498 441.741 547.078 441.822 546.609 441.822C545.833 441.822 545.241 441.661 544.833 441.338C544.428 441.016 544.169 440.538 544.057 439.905ZM554.306 439.764L555.352 439.893C555.187 440.504 554.881 440.979 554.435 441.316C553.989 441.653 553.42 441.822 552.726 441.822C551.853 441.822 551.159 441.554 550.646 441.018C550.136 440.478 549.881 439.723 549.881 438.752C549.881 437.748 550.14 436.968 550.657 436.413C551.174 435.859 551.845 435.581 552.67 435.581C553.468 435.581 554.12 435.853 554.626 436.397C555.132 436.94 555.385 437.705 555.385 438.69C555.385 438.75 555.383 438.84 555.38 438.96H550.927C550.965 439.616 551.15 440.118 551.484 440.467C551.817 440.815 552.233 440.99 552.732 440.99C553.103 440.99 553.42 440.892 553.682 440.697C553.944 440.503 554.152 440.191 554.306 439.764ZM550.983 438.128H554.317C554.272 437.626 554.145 437.249 553.935 436.998C553.613 436.608 553.195 436.413 552.681 436.413C552.216 436.413 551.825 436.569 551.506 436.88C551.191 437.191 551.017 437.607 550.983 438.128ZM556.628 441.687V435.716H557.539V436.565C557.977 435.909 558.611 435.581 559.439 435.581C559.799 435.581 560.129 435.647 560.428 435.778C560.732 435.906 560.959 436.074 561.109 436.284C561.259 436.494 561.364 436.743 561.423 437.032C561.461 437.219 561.48 437.547 561.48 438.016V441.687H560.468V438.055C560.468 437.643 560.428 437.335 560.35 437.133C560.271 436.927 560.13 436.764 559.928 436.644C559.729 436.52 559.495 436.458 559.225 436.458C558.794 436.458 558.421 436.595 558.106 436.869C557.795 437.142 557.64 437.662 557.64 438.426V441.687H556.628ZM563.037 441.687V433.445H564.049V436.402C564.521 435.855 565.117 435.581 565.837 435.581C566.279 435.581 566.663 435.669 566.989 435.846C567.315 436.018 567.548 436.258 567.686 436.565C567.829 436.873 567.9 437.319 567.9 437.903V441.687H566.888V437.903C566.888 437.397 566.778 437.03 566.556 436.801C566.339 436.569 566.03 436.453 565.629 436.453C565.329 436.453 565.046 436.531 564.78 436.689C564.517 436.843 564.33 437.052 564.218 437.319C564.105 437.585 564.049 437.952 564.049 438.42V441.687H563.037ZM573.342 440.95C572.967 441.269 572.606 441.494 572.257 441.625C571.912 441.756 571.541 441.822 571.144 441.822C570.488 441.822 569.984 441.663 569.632 441.344C569.279 441.022 569.103 440.611 569.103 440.113C569.103 439.82 569.169 439.554 569.3 439.314C569.435 439.071 569.609 438.876 569.823 438.73C570.04 438.584 570.284 438.473 570.554 438.398C570.752 438.346 571.052 438.295 571.453 438.246C572.27 438.149 572.872 438.033 573.258 437.898C573.262 437.759 573.264 437.671 573.264 437.633C573.264 437.221 573.168 436.931 572.977 436.762C572.718 436.533 572.334 436.419 571.824 436.419C571.348 436.419 570.996 436.503 570.767 436.672C570.542 436.837 570.376 437.131 570.267 437.555L569.278 437.42C569.367 436.996 569.516 436.655 569.722 436.397C569.928 436.134 570.226 435.934 570.616 435.795C571.005 435.653 571.457 435.581 571.971 435.581C572.48 435.581 572.894 435.641 573.213 435.761C573.532 435.881 573.766 436.033 573.916 436.217C574.066 436.397 574.171 436.625 574.231 436.903C574.264 437.075 574.281 437.386 574.281 437.836V439.185C574.281 440.126 574.302 440.722 574.343 440.973C574.388 441.22 574.474 441.458 574.602 441.687H573.545C573.44 441.477 573.372 441.232 573.342 440.95ZM573.258 438.69C572.891 438.84 572.34 438.968 571.605 439.073C571.189 439.133 570.895 439.2 570.722 439.275C570.55 439.35 570.417 439.461 570.323 439.607C570.23 439.749 570.183 439.908 570.183 440.085C570.183 440.354 570.284 440.579 570.486 440.759C570.692 440.939 570.992 441.029 571.386 441.029C571.776 441.029 572.122 440.945 572.426 440.776C572.729 440.604 572.952 440.369 573.095 440.073C573.204 439.845 573.258 439.507 573.258 439.061V438.69Z" fill="white"/>
<rect x="520" y="450.481" width="415" height="60" rx="4" fill="#1C1C1F"/>
<path d="M533.897 486.481V475.028H537.842C538.733 475.028 539.412 475.083 539.881 475.192C540.537 475.343 541.097 475.617 541.561 476.013C542.165 476.523 542.616 477.177 542.912 477.973C543.214 478.765 543.366 479.671 543.366 480.692C543.366 481.562 543.264 482.333 543.061 483.005C542.858 483.677 542.597 484.234 542.28 484.677C541.962 485.114 541.613 485.46 541.233 485.716C540.858 485.966 540.402 486.156 539.866 486.286C539.334 486.416 538.722 486.481 538.03 486.481H533.897ZM535.412 485.13H537.858C538.613 485.13 539.204 485.059 539.631 484.919C540.063 484.778 540.407 484.58 540.662 484.325C541.022 483.966 541.3 483.484 541.498 482.88C541.701 482.27 541.803 481.533 541.803 480.669C541.803 479.471 541.605 478.552 541.209 477.911C540.819 477.265 540.342 476.833 539.78 476.614C539.373 476.458 538.72 476.38 537.819 476.38H535.412V485.13ZM545.287 476.645V475.028H546.694V476.645H545.287ZM545.287 486.481V478.184H546.694V486.481H545.287ZM548.584 487.169L549.951 487.372C550.009 487.794 550.168 488.101 550.428 488.294C550.777 488.554 551.254 488.684 551.858 488.684C552.509 488.684 553.011 488.554 553.366 488.294C553.72 488.033 553.959 487.669 554.084 487.2C554.157 486.914 554.191 486.312 554.186 485.395C553.571 486.119 552.806 486.481 551.889 486.481C550.748 486.481 549.866 486.07 549.241 485.247C548.616 484.424 548.303 483.437 548.303 482.286C548.303 481.494 548.446 480.765 548.733 480.098C549.019 479.427 549.433 478.908 549.975 478.544C550.522 478.179 551.162 477.997 551.897 477.997C552.876 477.997 553.683 478.393 554.319 479.184V478.184H555.616V485.356C555.616 486.648 555.483 487.562 555.217 488.098C554.957 488.64 554.54 489.067 553.967 489.38C553.399 489.692 552.699 489.848 551.866 489.848C550.876 489.848 550.076 489.625 549.467 489.177C548.858 488.734 548.563 488.065 548.584 487.169ZM549.748 482.184C549.748 483.273 549.964 484.067 550.397 484.567C550.829 485.067 551.371 485.317 552.022 485.317C552.668 485.317 553.209 485.07 553.647 484.575C554.084 484.075 554.303 483.294 554.303 482.231C554.303 481.216 554.076 480.45 553.623 479.934C553.175 479.419 552.634 479.161 551.998 479.161C551.373 479.161 550.842 479.416 550.405 479.927C549.967 480.432 549.748 481.184 549.748 482.184ZM557.756 476.645V475.028H559.162V476.645H557.756ZM557.756 486.481V478.184H559.162V486.481H557.756ZM564.381 485.223L564.584 486.466C564.188 486.549 563.834 486.591 563.522 486.591C563.011 486.591 562.616 486.51 562.334 486.348C562.053 486.187 561.855 485.976 561.741 485.716C561.626 485.45 561.569 484.895 561.569 484.052V479.278H560.537V478.184H561.569V476.13L562.967 475.286V478.184H564.381V479.278H562.967V484.13C562.967 484.531 562.991 484.789 563.037 484.903C563.089 485.018 563.17 485.109 563.28 485.177C563.394 485.244 563.556 485.278 563.764 485.278C563.92 485.278 564.126 485.26 564.381 485.223ZM571.444 483.809L572.897 483.989C572.668 484.838 572.243 485.497 571.623 485.966C571.004 486.434 570.212 486.669 569.248 486.669C568.035 486.669 567.071 486.296 566.358 485.552C565.649 484.802 565.295 483.752 565.295 482.403C565.295 481.007 565.655 479.924 566.373 479.153C567.092 478.382 568.024 477.997 569.17 477.997C570.28 477.997 571.186 478.375 571.889 479.13C572.592 479.885 572.944 480.947 572.944 482.317C572.944 482.401 572.941 482.526 572.936 482.692H566.748C566.8 483.604 567.058 484.302 567.522 484.786C567.985 485.27 568.563 485.513 569.256 485.513C569.772 485.513 570.212 485.377 570.576 485.106C570.941 484.835 571.23 484.403 571.444 483.809ZM566.826 481.536H571.459C571.397 480.838 571.22 480.315 570.928 479.966C570.48 479.424 569.899 479.153 569.186 479.153C568.54 479.153 567.996 479.369 567.553 479.802C567.116 480.234 566.873 480.812 566.826 481.536ZM578.561 484.005L579.951 483.786C580.03 484.343 580.246 484.77 580.6 485.067C580.959 485.364 581.459 485.513 582.1 485.513C582.746 485.513 583.225 485.382 583.537 485.122C583.85 484.856 584.006 484.546 584.006 484.192C584.006 483.875 583.868 483.625 583.592 483.442C583.399 483.317 582.92 483.158 582.155 482.966C581.123 482.705 580.407 482.481 580.006 482.294C579.61 482.101 579.308 481.838 579.1 481.505C578.897 481.166 578.795 480.794 578.795 480.388C578.795 480.018 578.879 479.677 579.045 479.364C579.217 479.046 579.449 478.783 579.741 478.575C579.959 478.414 580.256 478.278 580.631 478.169C581.011 478.054 581.418 477.997 581.85 477.997C582.501 477.997 583.071 478.091 583.561 478.278C584.056 478.466 584.42 478.721 584.655 479.044C584.889 479.362 585.05 479.789 585.139 480.325L583.764 480.513C583.701 480.085 583.519 479.752 583.217 479.513C582.92 479.273 582.498 479.153 581.951 479.153C581.306 479.153 580.845 479.26 580.569 479.473C580.293 479.687 580.155 479.937 580.155 480.223C580.155 480.406 580.212 480.57 580.326 480.716C580.441 480.867 580.621 480.992 580.866 481.091C581.006 481.143 581.42 481.263 582.108 481.45C583.102 481.716 583.795 481.934 584.186 482.106C584.582 482.273 584.892 482.518 585.116 482.841C585.339 483.164 585.451 483.565 585.451 484.044C585.451 484.513 585.313 484.955 585.037 485.372C584.767 485.783 584.373 486.104 583.858 486.333C583.342 486.557 582.759 486.669 582.108 486.669C581.03 486.669 580.207 486.445 579.639 485.997C579.076 485.549 578.717 484.885 578.561 484.005ZM592.561 486.481V485.263C591.915 486.2 591.037 486.669 589.928 486.669C589.438 486.669 588.98 486.575 588.553 486.388C588.131 486.2 587.816 485.966 587.608 485.684C587.405 485.398 587.261 485.049 587.178 484.638C587.121 484.362 587.092 483.924 587.092 483.325V478.184H588.498V482.786C588.498 483.52 588.527 484.015 588.584 484.27C588.673 484.64 588.86 484.932 589.147 485.145C589.433 485.354 589.787 485.458 590.209 485.458C590.631 485.458 591.027 485.351 591.397 485.138C591.767 484.919 592.027 484.625 592.178 484.255C592.334 483.88 592.412 483.338 592.412 482.63V478.184H593.819V486.481H592.561ZM601.444 485.458C600.923 485.901 600.42 486.213 599.936 486.395C599.457 486.578 598.941 486.669 598.389 486.669C597.477 486.669 596.777 486.447 596.287 486.005C595.798 485.557 595.553 484.987 595.553 484.294C595.553 483.888 595.644 483.518 595.826 483.184C596.014 482.846 596.256 482.575 596.553 482.372C596.855 482.169 597.194 482.015 597.569 481.911C597.845 481.838 598.261 481.768 598.819 481.7C599.954 481.565 600.79 481.403 601.326 481.216C601.332 481.023 601.334 480.901 601.334 480.848C601.334 480.276 601.201 479.872 600.936 479.638C600.576 479.32 600.043 479.161 599.334 479.161C598.673 479.161 598.183 479.278 597.866 479.513C597.553 479.742 597.321 480.151 597.17 480.739L595.795 480.552C595.92 479.963 596.126 479.489 596.412 479.13C596.699 478.765 597.113 478.487 597.655 478.294C598.196 478.096 598.824 477.997 599.537 477.997C600.246 477.997 600.821 478.08 601.264 478.247C601.707 478.414 602.032 478.625 602.241 478.88C602.449 479.13 602.595 479.447 602.678 479.833C602.725 480.072 602.748 480.505 602.748 481.13V483.005C602.748 484.312 602.777 485.14 602.834 485.489C602.897 485.833 603.017 486.164 603.194 486.481H601.725C601.579 486.19 601.485 485.848 601.444 485.458ZM601.326 482.317C600.816 482.526 600.05 482.703 599.03 482.848C598.451 482.932 598.043 483.026 597.803 483.13C597.563 483.234 597.379 483.388 597.248 483.591C597.118 483.789 597.053 484.01 597.053 484.255C597.053 484.63 597.194 484.942 597.475 485.192C597.761 485.442 598.178 485.567 598.725 485.567C599.267 485.567 599.748 485.45 600.17 485.216C600.592 484.976 600.902 484.651 601.1 484.239C601.251 483.921 601.326 483.453 601.326 482.833V482.317ZM608.826 484.005L610.217 483.786C610.295 484.343 610.511 484.77 610.866 485.067C611.225 485.364 611.725 485.513 612.366 485.513C613.011 485.513 613.491 485.382 613.803 485.122C614.116 484.856 614.272 484.546 614.272 484.192C614.272 483.875 614.134 483.625 613.858 483.442C613.665 483.317 613.186 483.158 612.42 482.966C611.389 482.705 610.673 482.481 610.272 482.294C609.876 482.101 609.574 481.838 609.366 481.505C609.162 481.166 609.061 480.794 609.061 480.388C609.061 480.018 609.144 479.677 609.311 479.364C609.483 479.046 609.714 478.783 610.006 478.575C610.225 478.414 610.522 478.278 610.897 478.169C611.277 478.054 611.683 477.997 612.116 477.997C612.767 477.997 613.337 478.091 613.826 478.278C614.321 478.466 614.686 478.721 614.92 479.044C615.155 479.362 615.316 479.789 615.405 480.325L614.03 480.513C613.967 480.085 613.785 479.752 613.483 479.513C613.186 479.273 612.764 479.153 612.217 479.153C611.571 479.153 611.11 479.26 610.834 479.473C610.558 479.687 610.42 479.937 610.42 480.223C610.42 480.406 610.477 480.57 610.592 480.716C610.707 480.867 610.886 480.992 611.131 481.091C611.272 481.143 611.686 481.263 612.373 481.45C613.368 481.716 614.061 481.934 614.451 482.106C614.847 482.273 615.157 482.518 615.381 482.841C615.605 483.164 615.717 483.565 615.717 484.044C615.717 484.513 615.579 484.955 615.303 485.372C615.032 485.783 614.639 486.104 614.123 486.333C613.608 486.557 613.024 486.669 612.373 486.669C611.295 486.669 610.472 486.445 609.905 485.997C609.342 485.549 608.983 484.885 608.826 484.005ZM623.069 483.809L624.522 483.989C624.293 484.838 623.868 485.497 623.248 485.966C622.629 486.434 621.837 486.669 620.873 486.669C619.66 486.669 618.696 486.296 617.983 485.552C617.274 484.802 616.92 483.752 616.92 482.403C616.92 481.007 617.28 479.924 617.998 479.153C618.717 478.382 619.649 477.997 620.795 477.997C621.905 477.997 622.811 478.375 623.514 479.13C624.217 479.885 624.569 480.947 624.569 482.317C624.569 482.401 624.566 482.526 624.561 482.692H618.373C618.425 483.604 618.683 484.302 619.147 484.786C619.61 485.27 620.188 485.513 620.881 485.513C621.397 485.513 621.837 485.377 622.201 485.106C622.566 484.835 622.855 484.403 623.069 483.809ZM618.451 481.536H623.084C623.022 480.838 622.845 480.315 622.553 479.966C622.105 479.424 621.524 479.153 620.811 479.153C620.165 479.153 619.621 479.369 619.178 479.802C618.741 480.234 618.498 480.812 618.451 481.536ZM626.295 486.481V478.184H627.561V479.364C628.17 478.453 629.05 477.997 630.201 477.997C630.701 477.997 631.16 478.088 631.576 478.27C631.998 478.447 632.313 478.682 632.522 478.973C632.73 479.265 632.876 479.612 632.959 480.013C633.011 480.273 633.037 480.729 633.037 481.38V486.481H631.631V481.434C631.631 480.862 631.576 480.434 631.467 480.153C631.358 479.867 631.162 479.64 630.881 479.473C630.605 479.302 630.28 479.216 629.905 479.216C629.306 479.216 628.787 479.406 628.35 479.786C627.918 480.166 627.701 480.888 627.701 481.95V486.481H626.295ZM635.201 486.481V475.028H636.608V479.138C637.264 478.377 638.092 477.997 639.092 477.997C639.707 477.997 640.241 478.119 640.694 478.364C641.147 478.604 641.47 478.937 641.662 479.364C641.86 479.791 641.959 480.411 641.959 481.223V486.481H640.553V481.223C640.553 480.52 640.399 480.01 640.092 479.692C639.79 479.369 639.36 479.208 638.803 479.208C638.386 479.208 637.993 479.317 637.623 479.536C637.259 479.75 636.998 480.041 636.842 480.411C636.686 480.781 636.608 481.291 636.608 481.942V486.481H635.201ZM649.522 485.458C649.001 485.901 648.498 486.213 648.014 486.395C647.535 486.578 647.019 486.669 646.467 486.669C645.556 486.669 644.855 486.447 644.366 486.005C643.876 485.557 643.631 484.987 643.631 484.294C643.631 483.888 643.722 483.518 643.905 483.184C644.092 482.846 644.334 482.575 644.631 482.372C644.933 482.169 645.272 482.015 645.647 481.911C645.923 481.838 646.339 481.768 646.897 481.7C648.032 481.565 648.868 481.403 649.405 481.216C649.41 481.023 649.412 480.901 649.412 480.848C649.412 480.276 649.28 479.872 649.014 479.638C648.655 479.32 648.121 479.161 647.412 479.161C646.751 479.161 646.261 479.278 645.944 479.513C645.631 479.742 645.399 480.151 645.248 480.739L643.873 480.552C643.998 479.963 644.204 479.489 644.491 479.13C644.777 478.765 645.191 478.487 645.733 478.294C646.274 478.096 646.902 477.997 647.616 477.997C648.324 477.997 648.899 478.08 649.342 478.247C649.785 478.414 650.11 478.625 650.319 478.88C650.527 479.13 650.673 479.447 650.756 479.833C650.803 480.072 650.826 480.505 650.826 481.13V483.005C650.826 484.312 650.855 485.14 650.912 485.489C650.975 485.833 651.095 486.164 651.272 486.481H649.803C649.657 486.19 649.563 485.848 649.522 485.458ZM649.405 482.317C648.894 482.526 648.129 482.703 647.108 482.848C646.53 482.932 646.121 483.026 645.881 483.13C645.642 483.234 645.457 483.388 645.326 483.591C645.196 483.789 645.131 484.01 645.131 484.255C645.131 484.63 645.272 484.942 645.553 485.192C645.839 485.442 646.256 485.567 646.803 485.567C647.345 485.567 647.826 485.45 648.248 485.216C648.67 484.976 648.98 484.651 649.178 484.239C649.329 483.921 649.405 483.453 649.405 482.833V482.317Z" fill="#50505C"/>
<path d="M914.5 476.731H899.5C899.086 476.731 898.75 477.067 898.75 477.481V487.981C898.75 488.396 899.086 488.731 899.5 488.731H914.5C914.914 488.731 915.25 488.396 915.25 487.981V477.481C915.25 477.067 914.914 476.731 914.5 476.731Z" stroke="#C1C1C4" stroke-width="2" stroke-linecap="round" stroke-linejoin="round"/>
<path d="M903.625 476.731V473.356C903.625 472.461 903.981 471.603 904.614 470.97C905.246 470.337 906.105 469.981 907 469.981C907.895 469.981 908.754 470.337 909.386 470.97C910.019 471.603 910.375 472.461 910.375 473.356V476.731" stroke="#C1C1C4" stroke-width="2" stroke-linecap="round" stroke-linejoin="round"/>
<path d="M908.062 482.731C908.062 483.318 907.587 483.794 907 483.794C906.413 483.794 905.938 483.318 905.938 482.731C905.938 482.145 906.413 481.669 907 481.669C907.587 481.669 908.062 482.145 908.062 482.731Z" fill="#C1C1C4" stroke="#C1C1C4" stroke-width="0.125"/>
<path d="M520.955 547.093V537.821H527.312V539.39H522.827V541.585H526.698V543.153H522.827V547.093H520.955ZM530.177 542.426L528.564 542.135C528.745 541.485 529.057 541.005 529.5 540.693C529.943 540.381 530.6 540.225 531.473 540.225C532.266 540.225 532.856 540.32 533.244 540.509C533.632 540.695 533.904 540.933 534.06 541.224C534.22 541.511 534.3 542.04 534.3 542.812L534.281 544.886C534.281 545.476 534.309 545.913 534.364 546.195C534.423 546.474 534.53 546.773 534.686 547.093H532.928C532.882 546.975 532.825 546.8 532.757 546.569C532.728 546.463 532.707 546.394 532.694 546.36C532.39 546.655 532.066 546.876 531.72 547.024C531.374 547.171 531.005 547.245 530.613 547.245C529.922 547.245 529.376 547.058 528.975 546.682C528.579 546.307 528.38 545.833 528.38 545.259C528.38 544.88 528.471 544.542 528.652 544.247C528.834 543.948 529.087 543.72 529.411 543.564C529.74 543.404 530.213 543.265 530.828 543.147C531.659 542.991 532.234 542.845 532.555 542.71V542.533C532.555 542.192 532.47 541.949 532.302 541.806C532.133 541.658 531.815 541.585 531.347 541.585C531.031 541.585 530.784 541.648 530.607 541.774C530.43 541.897 530.286 542.114 530.177 542.426ZM532.555 543.868C532.327 543.944 531.967 544.034 531.473 544.14C530.98 544.245 530.657 544.349 530.506 544.45C530.274 544.614 530.158 544.823 530.158 545.076C530.158 545.325 530.25 545.54 530.436 545.721C530.622 545.902 530.858 545.993 531.144 545.993C531.465 545.993 531.771 545.888 532.061 545.677C532.277 545.516 532.418 545.32 532.485 545.089C532.532 544.937 532.555 544.648 532.555 544.222V543.868ZM535.344 547.093V545.708L537.861 542.818C538.275 542.346 538.58 542.01 538.778 541.812C538.572 541.825 538.3 541.833 537.963 541.838L535.591 541.85V540.377H541.144V541.635L538.576 544.595L537.672 545.576C538.165 545.546 538.471 545.531 538.589 545.531H541.34V547.093H535.344ZM546.425 544.956L548.196 545.253C547.968 545.902 547.608 546.398 547.115 546.739C546.625 547.077 546.012 547.245 545.274 547.245C544.106 547.245 543.242 546.864 542.681 546.1C542.238 545.489 542.017 544.717 542.017 543.786C542.017 542.672 542.308 541.802 542.89 541.173C543.471 540.541 544.207 540.225 545.097 540.225C546.096 540.225 546.885 540.556 547.462 541.218C548.04 541.875 548.316 542.885 548.291 544.247H543.838C543.851 544.774 543.994 545.185 544.268 545.481C544.542 545.772 544.884 545.917 545.293 545.917C545.571 545.917 545.805 545.841 545.995 545.689C546.185 545.538 546.328 545.293 546.425 544.956ZM546.526 543.159C546.514 542.645 546.381 542.255 546.128 541.989C545.875 541.719 545.567 541.585 545.204 541.585C544.817 541.585 544.496 541.726 544.243 542.008C543.99 542.291 543.866 542.675 543.87 543.159H546.526ZM551.447 547.093H549.67V540.377H551.321V541.332C551.603 540.88 551.856 540.583 552.08 540.44C552.307 540.296 552.564 540.225 552.851 540.225C553.256 540.225 553.646 540.336 554.021 540.56L553.471 542.11C553.172 541.916 552.893 541.819 552.636 541.819C552.387 541.819 552.177 541.888 552.004 542.027C551.831 542.162 551.694 542.409 551.593 542.767C551.496 543.126 551.447 543.876 551.447 545.019V547.093ZM558.398 547.093V537.821H560.175V547.093H558.398ZM561.592 543.64C561.592 543.05 561.738 542.478 562.029 541.926C562.32 541.374 562.731 540.952 563.262 540.661C563.797 540.37 564.394 540.225 565.052 540.225C566.068 540.225 566.901 540.556 567.55 541.218C568.199 541.875 568.524 542.708 568.524 543.716C568.524 544.732 568.195 545.576 567.537 546.246C566.884 546.912 566.06 547.245 565.064 547.245C564.449 547.245 563.861 547.106 563.3 546.828C562.743 546.55 562.32 546.143 562.029 545.607C561.738 545.067 561.592 544.412 561.592 543.64ZM563.414 543.735C563.414 544.401 563.572 544.911 563.888 545.266C564.204 545.62 564.594 545.797 565.058 545.797C565.522 545.797 565.91 545.62 566.222 545.266C566.538 544.911 566.696 544.397 566.696 543.722C566.696 543.065 566.538 542.559 566.222 542.204C565.91 541.85 565.522 541.673 565.058 541.673C564.594 541.673 564.204 541.85 563.888 542.204C563.572 542.559 563.414 543.069 563.414 543.735ZM569.758 547.536L571.788 547.783C571.822 548.019 571.9 548.181 572.022 548.27C572.19 548.396 572.456 548.46 572.819 548.46C573.283 548.46 573.63 548.39 573.862 548.251C574.018 548.158 574.136 548.008 574.217 547.802C574.271 547.654 574.299 547.382 574.299 546.986V546.006C573.767 546.731 573.097 547.093 572.287 547.093C571.385 547.093 570.67 546.712 570.143 545.949C569.73 545.346 569.523 544.595 569.523 543.697C569.523 542.571 569.793 541.711 570.333 541.117C570.877 540.522 571.552 540.225 572.357 540.225C573.188 540.225 573.873 540.589 574.413 541.319V540.377H576.076V546.404C576.076 547.197 576.011 547.789 575.88 548.181C575.749 548.574 575.566 548.881 575.33 549.105C575.094 549.328 574.777 549.503 574.381 549.63C573.989 549.756 573.491 549.819 572.888 549.819C571.75 549.819 570.942 549.623 570.466 549.231C569.989 548.843 569.751 548.35 569.751 547.751C569.751 547.692 569.753 547.621 569.758 547.536ZM571.345 543.596C571.345 544.308 571.482 544.831 571.756 545.164C572.034 545.493 572.376 545.658 572.781 545.658C573.215 545.658 573.582 545.489 573.881 545.152C574.181 544.81 574.33 544.306 574.33 543.64C574.33 542.944 574.187 542.428 573.9 542.091C573.614 541.753 573.251 541.585 572.812 541.585C572.387 541.585 572.034 541.751 571.756 542.084C571.482 542.413 571.345 542.917 571.345 543.596ZM577.841 539.466V537.821H579.618V539.466H577.841ZM577.841 547.093V540.377H579.618V547.093H577.841ZM587.556 547.093H585.778V543.665C585.778 542.94 585.74 542.472 585.664 542.261C585.589 542.046 585.464 541.88 585.291 541.762C585.123 541.644 584.918 541.585 584.678 541.585C584.37 541.585 584.094 541.669 583.849 541.838C583.605 542.006 583.436 542.23 583.343 542.508C583.255 542.786 583.21 543.301 583.21 544.051V547.093H581.433V540.377H583.084V541.363C583.67 540.604 584.408 540.225 585.298 540.225C585.69 540.225 586.048 540.296 586.373 540.44C586.698 540.579 586.942 540.758 587.107 540.977C587.275 541.197 587.391 541.445 587.454 541.724C587.522 542.002 587.556 542.4 587.556 542.919V547.093Z" fill="white"/>
<rect width="415" height="40" transform="translate(520 522.481)" fill="#8257E3"/>
<path d="M694.977 548.481L699.375 537.028H701.008L705.695 548.481H703.969L702.633 545.013H697.844L696.586 548.481H694.977ZM698.281 543.778H702.164L700.969 540.606C700.604 539.643 700.333 538.851 700.156 538.231C700.01 538.966 699.805 539.695 699.539 540.419L698.281 543.778ZM706.727 548.481V537.028H708.133V541.138C708.789 540.377 709.617 539.997 710.617 539.997C711.232 539.997 711.766 540.119 712.219 540.364C712.672 540.604 712.995 540.937 713.188 541.364C713.385 541.791 713.484 542.411 713.484 543.224V548.481H712.078V543.224C712.078 542.52 711.924 542.01 711.617 541.692C711.315 541.369 710.885 541.208 710.328 541.208C709.911 541.208 709.518 541.317 709.148 541.536C708.784 541.75 708.523 542.041 708.367 542.411C708.211 542.781 708.133 543.291 708.133 543.942V548.481H706.727ZM715.633 548.481V537.028H717.039V541.138C717.695 540.377 718.523 539.997 719.523 539.997C720.138 539.997 720.672 540.119 721.125 540.364C721.578 540.604 721.901 540.937 722.094 541.364C722.292 541.791 722.391 542.411 722.391 543.224V548.481H720.984V543.224C720.984 542.52 720.831 542.01 720.523 541.692C720.221 541.369 719.792 541.208 719.234 541.208C718.818 541.208 718.424 541.317 718.055 541.536C717.69 541.75 717.43 542.041 717.273 542.411C717.117 542.781 717.039 543.291 717.039 543.942V548.481H715.633ZM728.992 548.481V540.184H730.25V541.349C730.51 540.942 730.857 540.617 731.289 540.372C731.721 540.122 732.214 539.997 732.766 539.997C733.38 539.997 733.883 540.125 734.273 540.38C734.669 540.635 734.948 540.992 735.109 541.45C735.766 540.481 736.62 539.997 737.672 539.997C738.495 539.997 739.128 540.226 739.57 540.684C740.013 541.138 740.234 541.838 740.234 542.786V548.481H738.836V543.255C738.836 542.692 738.789 542.289 738.695 542.044C738.607 541.794 738.443 541.593 738.203 541.442C737.964 541.291 737.682 541.216 737.359 541.216C736.776 541.216 736.292 541.411 735.906 541.802C735.521 542.187 735.328 542.807 735.328 543.661V548.481H733.922V543.091C733.922 542.466 733.807 541.997 733.578 541.684C733.349 541.372 732.974 541.216 732.453 541.216C732.057 541.216 731.69 541.32 731.352 541.528C731.018 541.737 730.776 542.041 730.625 542.442C730.474 542.843 730.398 543.421 730.398 544.177V548.481H728.992ZM748 545.809L749.453 545.989C749.224 546.838 748.799 547.497 748.18 547.966C747.56 548.434 746.768 548.669 745.805 548.669C744.591 548.669 743.628 548.296 742.914 547.552C742.206 546.802 741.852 545.752 741.852 544.403C741.852 543.007 742.211 541.924 742.93 541.153C743.648 540.382 744.581 539.997 745.727 539.997C746.836 539.997 747.742 540.375 748.445 541.13C749.148 541.885 749.5 542.947 749.5 544.317C749.5 544.401 749.497 544.526 749.492 544.692H743.305C743.357 545.604 743.615 546.302 744.078 546.786C744.542 547.27 745.12 547.513 745.812 547.513C746.328 547.513 746.768 547.377 747.133 547.106C747.497 546.835 747.786 546.403 748 545.809ZM743.383 543.536H748.016C747.953 542.838 747.776 542.315 747.484 541.966C747.036 541.424 746.456 541.153 745.742 541.153C745.096 541.153 744.552 541.369 744.109 541.802C743.672 542.234 743.43 542.812 743.383 543.536ZM756.664 548.481V547.263C756.018 548.2 755.141 548.669 754.031 548.669C753.542 548.669 753.083 548.575 752.656 548.388C752.234 548.2 751.919 547.966 751.711 547.684C751.508 547.398 751.365 547.049 751.281 546.638C751.224 546.362 751.195 545.924 751.195 545.325V540.184H752.602V544.786C752.602 545.52 752.63 546.015 752.688 546.27C752.776 546.64 752.964 546.932 753.25 547.145C753.536 547.354 753.891 547.458 754.312 547.458C754.734 547.458 755.13 547.351 755.5 547.138C755.87 546.919 756.13 546.625 756.281 546.255C756.438 545.88 756.516 545.338 756.516 544.63V540.184H757.922V548.481H756.664Z" fill="white"/>
</g>
<g clip-path="url(#clip1_1_3)">
<path d="M772.312 236.011C772.312 229.034 763.575 222.423 750.181 218.323C753.272 204.67 751.898 193.809 745.844 190.331C744.449 189.515 742.818 189.129 741.036 189.129V193.916C742.024 193.916 742.818 194.109 743.483 194.474C746.403 196.148 747.669 202.524 746.682 210.724C746.446 212.742 746.059 214.867 745.587 217.035C741.38 216.004 736.786 215.21 731.956 214.695C729.058 210.724 726.053 207.118 723.026 203.962C730.024 197.458 736.593 193.895 741.058 193.895V189.108C735.154 189.108 727.427 193.315 719.613 200.613C711.799 193.358 704.072 189.193 698.169 189.193V193.98C702.612 193.98 709.202 197.522 716.2 203.984C713.195 207.139 710.19 210.724 707.335 214.695C702.483 215.21 697.89 216.004 693.682 217.056C693.188 214.91 692.824 212.827 692.566 210.831C691.557 202.631 692.802 196.256 695.7 194.56C696.344 194.174 697.181 194.002 698.169 194.002V189.215C696.365 189.215 694.734 189.601 693.317 190.417C687.285 193.895 685.933 204.735 689.046 218.344C675.694 222.466 667 229.056 667 236.011C667 242.987 675.737 249.599 689.131 253.699C686.04 267.351 687.414 278.213 693.468 281.69C694.863 282.506 696.494 282.892 698.297 282.892C704.201 282.892 711.928 278.685 719.742 271.387C727.555 278.642 735.283 282.807 741.186 282.807C742.989 282.807 744.621 282.42 746.038 281.604C752.07 278.127 753.422 267.287 750.309 253.677C763.618 249.577 772.312 242.966 772.312 236.011V236.011ZM744.363 221.693C743.569 224.462 742.582 227.317 741.465 230.172C740.585 228.455 739.662 226.737 738.653 225.02C737.666 223.303 736.614 221.629 735.562 219.997C738.61 220.448 741.551 221.006 744.363 221.693ZM734.532 244.554C732.858 247.452 731.14 250.2 729.359 252.754C726.16 253.033 722.919 253.183 719.656 253.183C716.415 253.183 713.173 253.033 709.996 252.776C708.215 250.221 706.476 247.495 704.802 244.619C703.17 241.807 701.689 238.952 700.337 236.075C701.668 233.199 703.17 230.322 704.78 227.51C706.454 224.612 708.172 221.865 709.953 219.31C713.152 219.031 716.393 218.881 719.656 218.881C722.897 218.881 726.139 219.031 729.316 219.289C731.097 221.843 732.836 224.569 734.51 227.446C736.142 230.258 737.623 233.113 738.975 235.989C737.623 238.866 736.142 241.742 734.532 244.554ZM741.465 241.764C742.625 244.64 743.612 247.516 744.428 250.307C741.616 250.994 738.653 251.574 735.584 252.024C736.636 250.371 737.687 248.676 738.675 246.937C739.662 245.22 740.585 243.481 741.465 241.764ZM719.699 264.668C717.703 262.607 715.706 260.31 713.731 257.799C715.663 257.885 717.638 257.949 719.635 257.949C721.652 257.949 723.649 257.906 725.602 257.799C723.67 260.31 721.674 262.607 719.699 264.668ZM703.728 252.024C700.68 251.574 697.739 251.015 694.927 250.329C695.721 247.559 696.709 244.704 697.825 241.849C698.705 243.567 699.628 245.284 700.637 247.001C701.646 248.719 702.676 250.393 703.728 252.024ZM719.592 207.354C721.588 209.414 723.584 211.711 725.559 214.223C723.627 214.137 721.652 214.073 719.656 214.073C717.638 214.073 715.642 214.115 713.688 214.223C715.62 211.711 717.617 209.414 719.592 207.354ZM703.707 219.997C702.655 221.65 701.603 223.346 700.616 225.085C699.628 226.802 698.705 228.519 697.825 230.236C696.666 227.36 695.679 224.484 694.863 221.693C697.675 221.027 700.637 220.448 703.707 219.997V219.997ZM684.28 246.873C676.681 243.631 671.765 239.381 671.765 236.011C671.765 232.641 676.681 228.369 684.28 225.149C686.126 224.355 688.144 223.646 690.226 222.981C691.45 227.188 693.06 231.567 695.056 236.054C693.081 240.519 691.493 244.876 690.291 249.062C688.165 248.397 686.148 247.667 684.28 246.873ZM695.829 277.547C692.909 275.873 691.643 269.498 692.63 261.298C692.866 259.28 693.253 257.155 693.725 254.987C697.932 256.017 702.526 256.811 707.356 257.326C710.254 261.298 713.259 264.904 716.286 268.059C709.288 274.564 702.719 278.127 698.254 278.127C697.288 278.105 696.473 277.912 695.829 277.547V277.547ZM746.746 261.19C747.755 269.39 746.51 275.766 743.612 277.461C742.968 277.848 742.131 278.02 741.143 278.02C736.7 278.02 730.11 274.478 723.112 268.016C726.117 264.861 729.122 261.276 731.977 257.305C736.829 256.79 741.422 255.996 745.63 254.944C746.124 257.112 746.51 259.194 746.746 261.19V261.19ZM755.01 246.873C753.164 247.667 751.147 248.375 749.064 249.041C747.841 244.833 746.231 240.454 744.235 235.968C746.209 231.503 747.798 227.145 749 222.959C751.125 223.625 753.143 224.355 755.032 225.149C762.631 228.39 767.547 232.641 767.547 236.011C767.525 239.381 762.609 243.653 755.01 246.873V246.873Z" fill="#61DAFB"/>
<path d="M719.635 245.821C725.052 245.821 729.444 241.429 729.444 236.011C729.444 230.593 725.052 226.201 719.635 226.201C714.217 226.201 709.825 230.593 709.825 236.011C709.825 241.429 714.217 245.821 719.635 245.821Z" fill="#61DAFB"/>
</g>
<defs>
<clipPath id="clip0_1_3">
<rect width="415" height="225.794" fill="white" transform="translate(520 336.687)"/>
</clipPath>
<clipPath id="clip1_1_3">
<rect width="105.312" height="120" fill="white" transform="translate(667 176)"/>
</clipPath>
</defs>
</svg>
