<svg width="1440" height="900" viewBox="0 0 1440 900" fill="none" xmlns="http://www.w3.org/2000/svg">
<rect width="1440" height="900" fill="url(#paint0_linear_7_6)"/>
<rect x="300" y="229" width="840" height="442" rx="4" fill="#212121"/>
<circle cx="345.5" cy="271.484" r="14.5" fill="#DB3636"/>
<circle cx="383.5" cy="270.859" r="14.5" fill="#CAB600"/>
<circle cx="421.5" cy="271.5" r="14.5" fill="#23B228"/>
<path d="M527.191 280H524.367V265.258H519.352V262.867H532.195V265.258H527.191V280ZM539.707 266.781C540.863 266.781 541.855 267.02 542.684 267.496C543.512 267.973 544.148 268.648 544.594 269.523C545.039 270.398 545.262 271.445 545.262 272.664V274.141H536.602C536.633 275.398 536.969 276.367 537.609 277.047C538.258 277.727 539.164 278.066 540.328 278.066C541.156 278.066 541.898 277.988 542.555 277.832C543.219 277.668 543.902 277.43 544.605 277.117V279.355C543.957 279.66 543.297 279.883 542.625 280.023C541.953 280.164 541.148 280.234 540.211 280.234C538.938 280.234 537.816 279.988 536.848 279.496C535.887 278.996 535.133 278.254 534.586 277.27C534.047 276.285 533.777 275.062 533.777 273.602C533.777 272.148 534.023 270.914 534.516 269.898C535.008 268.883 535.699 268.109 536.59 267.578C537.48 267.047 538.52 266.781 539.707 266.781ZM539.707 268.855C538.84 268.855 538.137 269.137 537.598 269.699C537.066 270.262 536.754 271.086 536.66 272.172H542.566C542.559 271.523 542.449 270.949 542.238 270.449C542.035 269.949 541.723 269.559 541.301 269.277C540.887 268.996 540.355 268.855 539.707 268.855ZM554.941 266.781C555.16 266.781 555.398 266.793 555.656 266.816C555.914 266.84 556.137 266.871 556.324 266.91L556.066 269.488C555.902 269.441 555.699 269.406 555.457 269.383C555.223 269.359 555.012 269.348 554.824 269.348C554.332 269.348 553.863 269.43 553.418 269.594C552.973 269.75 552.578 269.992 552.234 270.32C551.891 270.641 551.621 271.043 551.426 271.527C551.23 272.012 551.133 272.574 551.133 273.215V280H548.367V267.027H550.523L550.898 269.312H551.027C551.285 268.852 551.605 268.43 551.988 268.047C552.371 267.664 552.809 267.359 553.301 267.133C553.801 266.898 554.348 266.781 554.941 266.781ZM573.387 266.781C574.84 266.781 575.934 267.156 576.668 267.906C577.41 268.656 577.781 269.859 577.781 271.516V280H575.027V272.008C575.027 271.023 574.836 270.281 574.453 269.781C574.07 269.281 573.488 269.031 572.707 269.031C571.613 269.031 570.824 269.383 570.34 270.086C569.863 270.781 569.625 271.793 569.625 273.121V280H566.871V272.008C566.871 271.352 566.785 270.805 566.613 270.367C566.449 269.922 566.195 269.59 565.852 269.371C565.508 269.145 565.074 269.031 564.551 269.031C563.793 269.031 563.188 269.203 562.734 269.547C562.289 269.891 561.969 270.398 561.773 271.07C561.578 271.734 561.48 272.551 561.48 273.52V280H558.727V267.027H560.871L561.258 268.773H561.41C561.676 268.32 562.004 267.949 562.395 267.66C562.793 267.363 563.234 267.145 563.719 267.004C564.203 266.855 564.707 266.781 565.23 266.781C566.199 266.781 567.016 266.953 567.68 267.297C568.344 267.633 568.84 268.148 569.168 268.844H569.379C569.785 268.141 570.352 267.621 571.078 267.285C571.805 266.949 572.574 266.781 573.387 266.781ZM584.379 267.027V280H581.625V267.027H584.379ZM583.02 262.059C583.441 262.059 583.805 262.172 584.109 262.398C584.422 262.625 584.578 263.016 584.578 263.57C584.578 264.117 584.422 264.508 584.109 264.742C583.805 264.969 583.441 265.082 583.02 265.082C582.582 265.082 582.211 264.969 581.906 264.742C581.609 264.508 581.461 264.117 581.461 263.57C581.461 263.016 581.609 262.625 581.906 262.398C582.211 262.172 582.582 262.059 583.02 262.059ZM595.09 266.781C596.551 266.781 597.688 267.16 598.5 267.918C599.32 268.668 599.73 269.875 599.73 271.539V280H596.977V272.055C596.977 271.047 596.77 270.293 596.355 269.793C595.941 269.285 595.301 269.031 594.434 269.031C593.176 269.031 592.301 269.418 591.809 270.191C591.324 270.965 591.082 272.086 591.082 273.555V280H588.328V267.027H590.473L590.859 268.785H591.012C591.293 268.332 591.641 267.961 592.055 267.672C592.477 267.375 592.945 267.152 593.461 267.004C593.984 266.855 594.527 266.781 595.09 266.781ZM608.672 266.781C610.312 266.781 611.551 267.145 612.387 267.871C613.23 268.598 613.652 269.73 613.652 271.27V280H611.695L611.168 278.16H611.074C610.707 278.629 610.328 279.016 609.938 279.32C609.547 279.625 609.094 279.852 608.578 280C608.07 280.156 607.449 280.234 606.715 280.234C605.941 280.234 605.25 280.094 604.641 279.812C604.031 279.523 603.551 279.086 603.199 278.5C602.848 277.914 602.672 277.172 602.672 276.273C602.672 274.938 603.168 273.934 604.16 273.262C605.16 272.59 606.668 272.219 608.684 272.148L610.934 272.066V271.387C610.934 270.488 610.723 269.848 610.301 269.465C609.887 269.082 609.301 268.891 608.543 268.891C607.895 268.891 607.266 268.984 606.656 269.172C606.047 269.359 605.453 269.59 604.875 269.863L603.984 267.918C604.617 267.582 605.336 267.309 606.141 267.098C606.953 266.887 607.797 266.781 608.672 266.781ZM610.922 273.801L609.246 273.859C607.871 273.906 606.906 274.141 606.352 274.562C605.797 274.984 605.52 275.562 605.52 276.297C605.52 276.938 605.711 277.406 606.094 277.703C606.477 277.992 606.98 278.137 607.605 278.137C608.559 278.137 609.348 277.867 609.973 277.328C610.605 276.781 610.922 275.98 610.922 274.926V273.801ZM620.273 280H617.508V261.766H620.273V280ZM630.727 262.867H635.824C638.035 262.867 639.703 263.188 640.828 263.828C641.953 264.469 642.516 265.574 642.516 267.145C642.516 267.801 642.398 268.395 642.164 268.926C641.938 269.449 641.605 269.883 641.168 270.227C640.73 270.562 640.191 270.789 639.551 270.906V271.023C640.215 271.141 640.805 271.348 641.32 271.645C641.844 271.941 642.254 272.367 642.551 272.922C642.855 273.477 643.008 274.195 643.008 275.078C643.008 276.125 642.758 277.016 642.258 277.75C641.766 278.484 641.059 279.043 640.137 279.426C639.223 279.809 638.137 280 636.879 280H630.727V262.867ZM633.539 269.934H636.234C637.508 269.934 638.391 269.727 638.883 269.312C639.375 268.898 639.621 268.293 639.621 267.496C639.621 266.684 639.328 266.098 638.742 265.738C638.164 265.379 637.242 265.199 635.977 265.199H633.539V269.934ZM633.539 272.207V277.645H636.504C637.816 277.645 638.738 277.391 639.27 276.883C639.801 276.375 640.066 275.688 640.066 274.82C640.066 274.289 639.945 273.828 639.703 273.438C639.469 273.047 639.082 272.746 638.543 272.535C638.004 272.316 637.277 272.207 636.363 272.207H633.539ZM657.574 267.027V280H655.406L655.031 278.254H654.879C654.605 278.699 654.258 279.07 653.836 279.367C653.414 279.656 652.945 279.871 652.43 280.012C651.914 280.16 651.371 280.234 650.801 280.234C649.824 280.234 648.988 280.07 648.293 279.742C647.605 279.406 647.078 278.891 646.711 278.195C646.344 277.5 646.16 276.602 646.16 275.5V267.027H648.926V274.984C648.926 275.992 649.129 276.746 649.535 277.246C649.949 277.746 650.59 277.996 651.457 277.996C652.293 277.996 652.957 277.824 653.449 277.48C653.941 277.137 654.289 276.629 654.492 275.957C654.703 275.285 654.809 274.461 654.809 273.484V267.027H657.574ZM664.277 267.027V280H661.523V267.027H664.277ZM662.918 262.059C663.34 262.059 663.703 262.172 664.008 262.398C664.32 262.625 664.477 263.016 664.477 263.57C664.477 264.117 664.32 264.508 664.008 264.742C663.703 264.969 663.34 265.082 662.918 265.082C662.48 265.082 662.109 264.969 661.805 264.742C661.508 264.508 661.359 264.117 661.359 263.57C661.359 263.016 661.508 262.625 661.805 262.398C662.109 262.172 662.48 262.059 662.918 262.059ZM670.992 280H668.227V261.766H670.992V280ZM679.289 280.234C677.742 280.234 676.5 279.672 675.562 278.547C674.633 277.414 674.168 275.746 674.168 273.543C674.168 271.316 674.641 269.633 675.586 268.492C676.539 267.352 677.793 266.781 679.348 266.781C680.004 266.781 680.578 266.871 681.07 267.051C681.562 267.223 681.984 267.457 682.336 267.754C682.695 268.051 683 268.383 683.25 268.75H683.379C683.34 268.508 683.293 268.16 683.238 267.707C683.191 267.246 683.168 266.82 683.168 266.43V261.766H685.934V280H683.777L683.285 278.23H683.168C682.934 278.605 682.637 278.945 682.277 279.25C681.926 279.547 681.504 279.785 681.012 279.965C680.527 280.145 679.953 280.234 679.289 280.234ZM680.062 277.996C681.242 277.996 682.074 277.656 682.559 276.977C683.043 276.297 683.293 275.277 683.309 273.918V273.555C683.309 272.102 683.074 270.988 682.605 270.215C682.137 269.434 681.281 269.043 680.039 269.043C679.047 269.043 678.289 269.445 677.766 270.25C677.25 271.047 676.992 272.16 676.992 273.59C676.992 275.02 677.25 276.113 677.766 276.871C678.289 277.621 679.055 277.996 680.062 277.996ZM695.051 266.781C696.207 266.781 697.199 267.02 698.027 267.496C698.855 267.973 699.492 268.648 699.938 269.523C700.383 270.398 700.605 271.445 700.605 272.664V274.141H691.945C691.977 275.398 692.312 276.367 692.953 277.047C693.602 277.727 694.508 278.066 695.672 278.066C696.5 278.066 697.242 277.988 697.898 277.832C698.562 277.668 699.246 277.43 699.949 277.117V279.355C699.301 279.66 698.641 279.883 697.969 280.023C697.297 280.164 696.492 280.234 695.555 280.234C694.281 280.234 693.16 279.988 692.191 279.496C691.23 278.996 690.477 278.254 689.93 277.27C689.391 276.285 689.121 275.062 689.121 273.602C689.121 272.148 689.367 270.914 689.859 269.898C690.352 268.883 691.043 268.109 691.934 267.578C692.824 267.047 693.863 266.781 695.051 266.781ZM695.051 268.855C694.184 268.855 693.48 269.137 692.941 269.699C692.41 270.262 692.098 271.086 692.004 272.172H697.91C697.902 271.523 697.793 270.949 697.582 270.449C697.379 269.949 697.066 269.559 696.645 269.277C696.23 268.996 695.699 268.855 695.051 268.855ZM708.07 280.234C706.523 280.234 705.281 279.672 704.344 278.547C703.414 277.414 702.949 275.746 702.949 273.543C702.949 271.316 703.422 269.633 704.367 268.492C705.32 267.352 706.574 266.781 708.129 266.781C708.785 266.781 709.359 266.871 709.852 267.051C710.344 267.223 710.766 267.457 711.117 267.754C711.477 268.051 711.781 268.383 712.031 268.75H712.16C712.121 268.508 712.074 268.16 712.02 267.707C711.973 267.246 711.949 266.82 711.949 266.43V261.766H714.715V280H712.559L712.066 278.23H711.949C711.715 278.605 711.418 278.945 711.059 279.25C710.707 279.547 710.285 279.785 709.793 279.965C709.309 280.145 708.734 280.234 708.07 280.234ZM708.844 277.996C710.023 277.996 710.855 277.656 711.34 276.977C711.824 276.297 712.074 275.277 712.09 273.918V273.555C712.09 272.102 711.855 270.988 711.387 270.215C710.918 269.434 710.062 269.043 708.82 269.043C707.828 269.043 707.07 269.445 706.547 270.25C706.031 271.047 705.773 272.16 705.773 273.59C705.773 275.02 706.031 276.113 706.547 276.871C707.07 277.621 707.836 277.996 708.844 277.996ZM727.652 261.766V266.16C727.652 266.668 727.637 267.168 727.605 267.66C727.582 268.145 727.559 268.523 727.535 268.797H727.652C728.004 268.234 728.492 267.762 729.117 267.379C729.75 266.988 730.559 266.793 731.543 266.793C733.082 266.793 734.32 267.359 735.258 268.492C736.195 269.617 736.664 271.285 736.664 273.496C736.664 274.965 736.449 276.199 736.02 277.199C735.59 278.199 734.984 278.957 734.203 279.473C733.43 279.98 732.52 280.234 731.473 280.234C730.488 280.234 729.691 280.055 729.082 279.695C728.48 279.328 728.008 278.902 727.664 278.418H727.465L726.961 280H724.898V261.766H727.652ZM730.816 269.031C730.035 269.031 729.414 269.188 728.953 269.5C728.5 269.812 728.172 270.281 727.969 270.906C727.766 271.523 727.66 272.309 727.652 273.262V273.508C727.652 274.953 727.879 276.059 728.332 276.824C728.793 277.59 729.629 277.973 730.84 277.973C731.801 277.973 732.539 277.586 733.055 276.812C733.57 276.031 733.828 274.914 733.828 273.461C733.828 271.992 733.57 270.887 733.055 270.145C732.547 269.402 731.801 269.031 730.816 269.031ZM737.895 267.027H740.895L743.555 274.434C743.672 274.77 743.777 275.102 743.871 275.43C743.973 275.75 744.059 276.066 744.129 276.379C744.207 276.691 744.27 277.004 744.316 277.316H744.387C744.465 276.91 744.574 276.457 744.715 275.957C744.863 275.449 745.027 274.941 745.207 274.434L747.762 267.027H750.727L745.16 281.781C744.84 282.625 744.445 283.344 743.977 283.938C743.516 284.539 742.969 284.992 742.336 285.297C741.703 285.609 740.98 285.766 740.168 285.766C739.777 285.766 739.438 285.742 739.148 285.695C738.859 285.656 738.613 285.613 738.41 285.566V283.363C738.574 283.402 738.781 283.438 739.031 283.469C739.281 283.5 739.539 283.516 739.805 283.516C740.297 283.516 740.723 283.418 741.082 283.223C741.441 283.027 741.746 282.75 741.996 282.391C742.246 282.039 742.453 281.637 742.617 281.184L743.074 279.965L737.895 267.027ZM764.191 262.867C766.402 262.867 768.016 263.32 769.031 264.227C770.047 265.133 770.555 266.402 770.555 268.035C770.555 268.777 770.438 269.484 770.203 270.156C769.977 270.82 769.602 271.41 769.078 271.926C768.555 272.434 767.863 272.836 767.004 273.133C766.152 273.43 765.102 273.578 763.852 273.578H762.023V280H759.211V262.867H764.191ZM764.004 265.199H762.023V271.234H763.559C764.441 271.234 765.191 271.133 765.809 270.93C766.426 270.719 766.895 270.387 767.215 269.934C767.535 269.48 767.695 268.883 767.695 268.141C767.695 267.148 767.395 266.41 766.793 265.926C766.199 265.441 765.27 265.199 764.004 265.199ZM778.863 266.781C780.02 266.781 781.012 267.02 781.84 267.496C782.668 267.973 783.305 268.648 783.75 269.523C784.195 270.398 784.418 271.445 784.418 272.664V274.141H775.758C775.789 275.398 776.125 276.367 776.766 277.047C777.414 277.727 778.32 278.066 779.484 278.066C780.312 278.066 781.055 277.988 781.711 277.832C782.375 277.668 783.059 277.43 783.762 277.117V279.355C783.113 279.66 782.453 279.883 781.781 280.023C781.109 280.164 780.305 280.234 779.367 280.234C778.094 280.234 776.973 279.988 776.004 279.496C775.043 278.996 774.289 278.254 773.742 277.27C773.203 276.285 772.934 275.062 772.934 273.602C772.934 272.148 773.18 270.914 773.672 269.898C774.164 268.883 774.855 268.109 775.746 267.578C776.637 267.047 777.676 266.781 778.863 266.781ZM778.863 268.855C777.996 268.855 777.293 269.137 776.754 269.699C776.223 270.262 775.91 271.086 775.816 272.172H781.723C781.715 271.523 781.605 270.949 781.395 270.449C781.191 269.949 780.879 269.559 780.457 269.277C780.043 268.996 779.512 268.855 778.863 268.855ZM791.883 280.234C790.336 280.234 789.094 279.672 788.156 278.547C787.227 277.414 786.762 275.746 786.762 273.543C786.762 271.316 787.234 269.633 788.18 268.492C789.133 267.352 790.387 266.781 791.941 266.781C792.598 266.781 793.172 266.871 793.664 267.051C794.156 267.223 794.578 267.457 794.93 267.754C795.289 268.051 795.594 268.383 795.844 268.75H795.973C795.934 268.508 795.887 268.16 795.832 267.707C795.785 267.246 795.762 266.82 795.762 266.43V261.766H798.527V280H796.371L795.879 278.23H795.762C795.527 278.605 795.23 278.945 794.871 279.25C794.52 279.547 794.098 279.785 793.605 279.965C793.121 280.145 792.547 280.234 791.883 280.234ZM792.656 277.996C793.836 277.996 794.668 277.656 795.152 276.977C795.637 276.297 795.887 275.277 795.902 273.918V273.555C795.902 272.102 795.668 270.988 795.199 270.215C794.73 269.434 793.875 269.043 792.633 269.043C791.641 269.043 790.883 269.445 790.359 270.25C789.844 271.047 789.586 272.16 789.586 273.59C789.586 275.02 789.844 276.113 790.359 276.871C790.883 277.621 791.648 277.996 792.656 277.996ZM809.051 266.781C809.27 266.781 809.508 266.793 809.766 266.816C810.023 266.84 810.246 266.871 810.434 266.91L810.176 269.488C810.012 269.441 809.809 269.406 809.566 269.383C809.332 269.359 809.121 269.348 808.934 269.348C808.441 269.348 807.973 269.43 807.527 269.594C807.082 269.75 806.688 269.992 806.344 270.32C806 270.641 805.73 271.043 805.535 271.527C805.34 272.012 805.242 272.574 805.242 273.215V280H802.477V267.027H804.633L805.008 269.312H805.137C805.395 268.852 805.715 268.43 806.098 268.047C806.48 267.664 806.918 267.359 807.41 267.133C807.91 266.898 808.457 266.781 809.051 266.781ZM824.32 273.484C824.32 274.562 824.18 275.52 823.898 276.355C823.617 277.191 823.207 277.898 822.668 278.477C822.129 279.047 821.48 279.484 820.723 279.789C819.965 280.086 819.109 280.234 818.156 280.234C817.266 280.234 816.449 280.086 815.707 279.789C814.965 279.484 814.32 279.047 813.773 278.477C813.234 277.898 812.816 277.191 812.52 276.355C812.223 275.52 812.074 274.562 812.074 273.484C812.074 272.055 812.32 270.844 812.812 269.852C813.312 268.852 814.023 268.09 814.945 267.566C815.867 267.043 816.965 266.781 818.238 266.781C819.434 266.781 820.488 267.043 821.402 267.566C822.316 268.09 823.031 268.852 823.547 269.852C824.062 270.852 824.32 272.062 824.32 273.484ZM814.91 273.484C814.91 274.43 815.023 275.238 815.25 275.91C815.484 276.582 815.844 277.098 816.328 277.457C816.812 277.809 817.438 277.984 818.203 277.984C818.969 277.984 819.594 277.809 820.078 277.457C820.562 277.098 820.918 276.582 821.145 275.91C821.371 275.238 821.484 274.43 821.484 273.484C821.484 272.539 821.371 271.738 821.145 271.082C820.918 270.418 820.562 269.914 820.078 269.57C819.594 269.219 818.965 269.043 818.191 269.043C817.051 269.043 816.219 269.426 815.695 270.191C815.172 270.957 814.91 272.055 814.91 273.484ZM847.91 271.27C847.91 273.199 847.551 274.812 846.832 276.109C846.113 277.398 845.07 278.371 843.703 279.027C842.336 279.676 840.688 280 838.758 280H834V262.867H839.273C841.047 262.867 842.578 263.188 843.867 263.828C845.156 264.461 846.152 265.402 846.855 266.652C847.559 267.895 847.91 269.434 847.91 271.27ZM844.98 271.352C844.98 269.945 844.758 268.789 844.312 267.883C843.875 266.977 843.227 266.305 842.367 265.867C841.516 265.422 840.465 265.199 839.215 265.199H836.812V277.645H838.805C840.875 277.645 842.422 277.117 843.445 276.062C844.469 275.008 844.98 273.438 844.98 271.352ZM854.074 267.027V280H851.32V267.027H854.074ZM852.715 262.059C853.137 262.059 853.5 262.172 853.805 262.398C854.117 262.625 854.273 263.016 854.273 263.57C854.273 264.117 854.117 264.508 853.805 264.742C853.5 264.969 853.137 265.082 852.715 265.082C852.277 265.082 851.906 264.969 851.602 264.742C851.305 264.508 851.156 264.117 851.156 263.57C851.156 263.016 851.305 262.625 851.602 262.398C851.906 262.172 852.277 262.059 852.715 262.059ZM863.109 266.781C864.75 266.781 865.988 267.145 866.824 267.871C867.668 268.598 868.09 269.73 868.09 271.27V280H866.133L865.605 278.16H865.512C865.145 278.629 864.766 279.016 864.375 279.32C863.984 279.625 863.531 279.852 863.016 280C862.508 280.156 861.887 280.234 861.152 280.234C860.379 280.234 859.688 280.094 859.078 279.812C858.469 279.523 857.988 279.086 857.637 278.5C857.285 277.914 857.109 277.172 857.109 276.273C857.109 274.938 857.605 273.934 858.598 273.262C859.598 272.59 861.105 272.219 863.121 272.148L865.371 272.066V271.387C865.371 270.488 865.16 269.848 864.738 269.465C864.324 269.082 863.738 268.891 862.98 268.891C862.332 268.891 861.703 268.984 861.094 269.172C860.484 269.359 859.891 269.59 859.312 269.863L858.422 267.918C859.055 267.582 859.773 267.309 860.578 267.098C861.391 266.887 862.234 266.781 863.109 266.781ZM865.359 273.801L863.684 273.859C862.309 273.906 861.344 274.141 860.789 274.562C860.234 274.984 859.957 275.562 859.957 276.297C859.957 276.938 860.148 277.406 860.531 277.703C860.914 277.992 861.418 278.137 862.043 278.137C862.996 278.137 863.785 277.867 864.41 277.328C865.043 276.781 865.359 275.98 865.359 274.926V273.801ZM880.664 276.297C880.664 277.148 880.457 277.867 880.043 278.453C879.629 279.039 879.023 279.484 878.227 279.789C877.438 280.086 876.469 280.234 875.32 280.234C874.414 280.234 873.633 280.168 872.977 280.035C872.328 279.91 871.715 279.715 871.137 279.449V277.07C871.754 277.359 872.445 277.609 873.211 277.82C873.984 278.031 874.715 278.137 875.402 278.137C876.309 278.137 876.961 277.996 877.359 277.715C877.758 277.426 877.957 277.043 877.957 276.566C877.957 276.285 877.875 276.035 877.711 275.816C877.555 275.59 877.258 275.359 876.82 275.125C876.391 274.883 875.758 274.594 874.922 274.258C874.102 273.93 873.41 273.602 872.848 273.273C872.285 272.945 871.859 272.551 871.57 272.09C871.281 271.621 871.137 271.023 871.137 270.297C871.137 269.148 871.59 268.277 872.496 267.684C873.41 267.082 874.617 266.781 876.117 266.781C876.914 266.781 877.664 266.863 878.367 267.027C879.078 267.184 879.773 267.414 880.453 267.719L879.586 269.793C879 269.535 878.41 269.324 877.816 269.16C877.23 268.988 876.633 268.902 876.023 268.902C875.312 268.902 874.77 269.012 874.395 269.23C874.027 269.449 873.844 269.762 873.844 270.168C873.844 270.473 873.934 270.73 874.113 270.941C874.293 271.152 874.602 271.363 875.039 271.574C875.484 271.785 876.102 272.047 876.891 272.359C877.664 272.656 878.332 272.969 878.895 273.297C879.465 273.617 879.902 274.012 880.207 274.48C880.512 274.949 880.664 275.555 880.664 276.297ZM897.082 262.867L890.695 280H888.117L894.504 262.867H897.082ZM918.469 262.867L912.48 280H909.504L903.516 262.867H906.398L910.008 273.602C910.117 273.914 910.234 274.293 910.359 274.738C910.492 275.184 910.613 275.633 910.723 276.086C910.84 276.539 910.93 276.941 910.992 277.293C911.055 276.941 911.141 276.539 911.25 276.086C911.367 275.633 911.488 275.184 911.613 274.738C911.738 274.293 911.855 273.91 911.965 273.59L915.586 262.867H918.469ZM925.547 274.727V272.395H931.594V274.727H925.547ZM947.848 280H945.082V268.973C945.082 268.605 945.086 268.238 945.094 267.871C945.102 267.504 945.109 267.145 945.117 266.793C945.133 266.441 945.152 266.105 945.176 265.785C945.012 265.965 944.809 266.16 944.566 266.371C944.332 266.582 944.082 266.801 943.816 267.027L941.848 268.598L940.465 266.852L945.551 262.867H947.848V280ZM953.977 278.547C953.977 277.906 954.141 277.457 954.469 277.199C954.805 276.934 955.211 276.801 955.688 276.801C956.164 276.801 956.57 276.934 956.906 277.199C957.25 277.457 957.422 277.906 957.422 278.547C957.422 279.172 957.25 279.625 956.906 279.906C956.57 280.18 956.164 280.316 955.688 280.316C955.211 280.316 954.805 280.18 954.469 279.906C954.141 279.625 953.977 279.172 953.977 278.547ZM971.672 271.422C971.672 272.805 971.562 274.043 971.344 275.137C971.133 276.223 970.797 277.145 970.336 277.902C969.875 278.66 969.273 279.238 968.531 279.637C967.789 280.035 966.891 280.234 965.836 280.234C964.516 280.234 963.426 279.887 962.566 279.191C961.707 278.488 961.07 277.48 960.656 276.168C960.242 274.848 960.035 273.266 960.035 271.422C960.035 269.578 960.223 268 960.598 266.688C960.98 265.367 961.598 264.355 962.449 263.652C963.301 262.949 964.43 262.598 965.836 262.598C967.164 262.598 968.258 262.949 969.117 263.652C969.984 264.348 970.625 265.355 971.039 266.676C971.461 267.988 971.672 269.57 971.672 271.422ZM962.812 271.422C962.812 272.867 962.906 274.074 963.094 275.043C963.289 276.012 963.609 276.738 964.055 277.223C964.5 277.699 965.094 277.938 965.836 277.938C966.578 277.938 967.172 277.699 967.617 277.223C968.062 276.746 968.383 276.023 968.578 275.055C968.781 274.086 968.883 272.875 968.883 271.422C968.883 269.984 968.785 268.781 968.59 267.812C968.395 266.844 968.074 266.117 967.629 265.633C967.184 265.141 966.586 264.895 965.836 264.895C965.086 264.895 964.488 265.141 964.043 265.633C963.605 266.117 963.289 266.844 963.094 267.812C962.906 268.781 962.812 269.984 962.812 271.422ZM974.297 278.547C974.297 277.906 974.461 277.457 974.789 277.199C975.125 276.934 975.531 276.801 976.008 276.801C976.484 276.801 976.891 276.934 977.227 277.199C977.57 277.457 977.742 277.906 977.742 278.547C977.742 279.172 977.57 279.625 977.227 279.906C976.891 280.18 976.484 280.316 976.008 280.316C975.531 280.316 975.125 280.18 974.789 279.906C974.461 279.625 974.297 279.172 974.297 278.547ZM991.992 271.422C991.992 272.805 991.883 274.043 991.664 275.137C991.453 276.223 991.117 277.145 990.656 277.902C990.195 278.66 989.594 279.238 988.852 279.637C988.109 280.035 987.211 280.234 986.156 280.234C984.836 280.234 983.746 279.887 982.887 279.191C982.027 278.488 981.391 277.48 980.977 276.168C980.562 274.848 980.355 273.266 980.355 271.422C980.355 269.578 980.543 268 980.918 266.688C981.301 265.367 981.918 264.355 982.77 263.652C983.621 262.949 984.75 262.598 986.156 262.598C987.484 262.598 988.578 262.949 989.438 263.652C990.305 264.348 990.945 265.355 991.359 266.676C991.781 267.988 991.992 269.57 991.992 271.422ZM983.133 271.422C983.133 272.867 983.227 274.074 983.414 275.043C983.609 276.012 983.93 276.738 984.375 277.223C984.82 277.699 985.414 277.938 986.156 277.938C986.898 277.938 987.492 277.699 987.938 277.223C988.383 276.746 988.703 276.023 988.898 275.055C989.102 274.086 989.203 272.875 989.203 271.422C989.203 269.984 989.105 268.781 988.91 267.812C988.715 266.844 988.395 266.117 987.949 265.633C987.504 265.141 986.906 264.895 986.156 264.895C985.406 264.895 984.809 265.141 984.363 265.633C983.926 266.117 983.609 266.844 983.414 267.812C983.227 268.781 983.133 269.984 983.133 271.422Z" fill="white"/>
<path d="M339.766 352H336.133V337.891H331.48V334.867H344.418V337.891H339.766V352ZM344.898 338.898H348.812L351.285 346.27C351.363 346.504 351.43 346.742 351.484 346.984C351.539 347.227 351.586 347.477 351.625 347.734C351.664 347.992 351.695 348.262 351.719 348.543H351.789C351.836 348.121 351.898 347.727 351.977 347.359C352.062 346.992 352.168 346.629 352.293 346.27L354.719 338.898H358.551L353.008 353.676C352.672 354.582 352.234 355.336 351.695 355.938C351.156 356.547 350.535 357.004 349.832 357.309C349.137 357.613 348.371 357.766 347.535 357.766C347.129 357.766 346.777 357.742 346.48 357.695C346.184 357.656 345.93 357.613 345.719 357.566V354.73C345.883 354.77 346.09 354.805 346.34 354.836C346.59 354.867 346.852 354.883 347.125 354.883C347.625 354.883 348.055 354.777 348.414 354.566C348.773 354.355 349.074 354.07 349.316 353.711C349.559 353.359 349.75 352.973 349.891 352.551L350.102 351.906L344.898 338.898ZM367.727 338.652C369.203 338.652 370.395 339.227 371.301 340.375C372.215 341.523 372.672 343.207 372.672 345.426C372.672 346.91 372.457 348.16 372.027 349.176C371.598 350.184 371.004 350.945 370.246 351.461C369.488 351.977 368.617 352.234 367.633 352.234C367 352.234 366.457 352.156 366.004 352C365.551 351.836 365.164 351.629 364.844 351.379C364.523 351.121 364.246 350.848 364.012 350.559H363.824C363.887 350.871 363.934 351.191 363.965 351.52C363.996 351.848 364.012 352.168 364.012 352.48V357.766H360.438V338.898H363.344L363.848 340.598H364.012C364.246 340.246 364.531 339.922 364.867 339.625C365.203 339.328 365.605 339.094 366.074 338.922C366.551 338.742 367.102 338.652 367.727 338.652ZM366.578 341.512C365.953 341.512 365.457 341.641 365.09 341.898C364.723 342.156 364.453 342.543 364.281 343.059C364.117 343.574 364.027 344.227 364.012 345.016V345.402C364.012 346.246 364.09 346.961 364.246 347.547C364.41 348.133 364.68 348.578 365.055 348.883C365.438 349.188 365.961 349.34 366.625 349.34C367.172 349.34 367.621 349.188 367.973 348.883C368.324 348.578 368.586 348.133 368.758 347.547C368.938 346.953 369.027 346.23 369.027 345.379C369.027 344.098 368.828 343.133 368.43 342.484C368.031 341.836 367.414 341.512 366.578 341.512ZM381.027 338.652C382.238 338.652 383.281 338.887 384.156 339.355C385.031 339.816 385.707 340.488 386.184 341.371C386.66 342.254 386.898 343.332 386.898 344.605V346.34H378.449C378.488 347.348 378.789 348.141 379.352 348.719C379.922 349.289 380.711 349.574 381.719 349.574C382.555 349.574 383.32 349.488 384.016 349.316C384.711 349.145 385.426 348.887 386.16 348.543V351.309C385.512 351.629 384.832 351.863 384.121 352.012C383.418 352.16 382.562 352.234 381.555 352.234C380.242 352.234 379.078 351.992 378.062 351.508C377.055 351.023 376.262 350.285 375.684 349.293C375.113 348.301 374.828 347.051 374.828 345.543C374.828 344.012 375.086 342.738 375.602 341.723C376.125 340.699 376.852 339.934 377.781 339.426C378.711 338.91 379.793 338.652 381.027 338.652ZM381.051 341.195C380.355 341.195 379.777 341.418 379.316 341.863C378.863 342.309 378.602 343.008 378.531 343.961H383.547C383.539 343.43 383.441 342.957 383.254 342.543C383.074 342.129 382.801 341.801 382.434 341.559C382.074 341.316 381.613 341.195 381.051 341.195ZM406.809 352L405.801 347.418C405.746 347.145 405.656 346.742 405.531 346.211C405.406 345.672 405.27 345.098 405.121 344.488C404.98 343.871 404.848 343.301 404.723 342.777C404.605 342.254 404.52 341.871 404.465 341.629H404.359C404.305 341.871 404.219 342.254 404.102 342.777C403.984 343.301 403.852 343.871 403.703 344.488C403.562 345.105 403.43 345.688 403.305 346.234C403.18 346.773 403.086 347.184 403.023 347.465L401.969 352H398.125L394.398 338.898H397.961L399.473 344.699C399.574 345.105 399.672 345.59 399.766 346.152C399.859 346.707 399.941 347.246 400.012 347.77C400.09 348.285 400.148 348.695 400.188 349H400.281C400.297 348.773 400.328 348.473 400.375 348.098C400.43 347.723 400.488 347.336 400.551 346.938C400.621 346.531 400.684 346.168 400.738 345.848C400.801 345.52 400.848 345.297 400.879 345.18L402.496 338.898H406.434L407.969 345.18C408.023 345.406 408.094 345.766 408.18 346.258C408.273 346.75 408.355 347.258 408.426 347.781C408.496 348.297 408.535 348.703 408.543 349H408.637C408.668 348.734 408.723 348.34 408.801 347.816C408.879 347.293 408.969 346.746 409.07 346.176C409.18 345.598 409.289 345.105 409.398 344.699L410.969 338.898H414.473L410.699 352H406.809ZM420.168 333.766V337.48C420.168 338.129 420.145 338.746 420.098 339.332C420.059 339.918 420.027 340.332 420.004 340.574H420.191C420.473 340.121 420.805 339.754 421.188 339.473C421.578 339.191 422.008 338.984 422.477 338.852C422.945 338.719 423.449 338.652 423.988 338.652C424.934 338.652 425.758 338.82 426.461 339.156C427.164 339.484 427.711 340.004 428.102 340.715C428.492 341.418 428.688 342.332 428.688 343.457V352H425.113V344.348C425.113 343.41 424.941 342.703 424.598 342.227C424.254 341.75 423.723 341.512 423.004 341.512C422.285 341.512 421.719 341.68 421.305 342.016C420.891 342.344 420.598 342.832 420.426 343.48C420.254 344.121 420.168 344.906 420.168 345.836V352H416.594V333.766H420.168ZM437.734 338.629C439.492 338.629 440.84 339.012 441.777 339.777C442.715 340.543 443.184 341.707 443.184 343.27V352H440.688L439.996 350.219H439.902C439.527 350.688 439.145 351.07 438.754 351.367C438.363 351.664 437.914 351.883 437.406 352.023C436.898 352.164 436.281 352.234 435.555 352.234C434.781 352.234 434.086 352.086 433.469 351.789C432.859 351.492 432.379 351.039 432.027 350.43C431.676 349.812 431.5 349.031 431.5 348.086C431.5 346.695 431.988 345.672 432.965 345.016C433.941 344.352 435.406 343.984 437.359 343.914L439.633 343.844V343.27C439.633 342.582 439.453 342.078 439.094 341.758C438.734 341.438 438.234 341.277 437.594 341.277C436.961 341.277 436.34 341.367 435.73 341.547C435.121 341.727 434.512 341.953 433.902 342.227L432.719 339.812C433.414 339.445 434.191 339.156 435.051 338.945C435.918 338.734 436.812 338.629 437.734 338.629ZM439.633 345.93L438.25 345.977C437.094 346.008 436.289 346.215 435.836 346.598C435.391 346.98 435.168 347.484 435.168 348.109C435.168 348.656 435.328 349.047 435.648 349.281C435.969 349.508 436.387 349.621 436.902 349.621C437.668 349.621 438.312 349.395 438.836 348.941C439.367 348.488 439.633 347.844 439.633 347.008V345.93ZM452.395 349.387C452.785 349.387 453.164 349.348 453.531 349.27C453.906 349.191 454.277 349.094 454.645 348.977V351.637C454.262 351.809 453.785 351.949 453.215 352.059C452.652 352.176 452.035 352.234 451.363 352.234C450.582 352.234 449.879 352.109 449.254 351.859C448.637 351.602 448.148 351.16 447.789 350.535C447.438 349.902 447.262 349.023 447.262 347.898V341.582H445.551V340.07L447.52 338.875L448.551 336.109H450.836V338.898H454.504V341.582H450.836V347.898C450.836 348.398 450.977 348.773 451.258 349.023C451.547 349.266 451.926 349.387 452.395 349.387ZM467.688 352.234C466.227 352.234 465.035 351.664 464.113 350.523C463.199 349.375 462.742 347.691 462.742 345.473C462.742 343.23 463.207 341.535 464.137 340.387C465.066 339.23 466.281 338.652 467.781 338.652C468.406 338.652 468.957 338.738 469.434 338.91C469.91 339.082 470.32 339.312 470.664 339.602C471.016 339.891 471.312 340.215 471.555 340.574H471.672C471.625 340.324 471.566 339.957 471.496 339.473C471.434 338.98 471.402 338.477 471.402 337.961V333.766H474.988V352H472.246L471.555 350.301H471.402C471.176 350.66 470.891 350.988 470.547 351.285C470.211 351.574 469.809 351.805 469.34 351.977C468.871 352.148 468.32 352.234 467.688 352.234ZM468.941 349.387C469.918 349.387 470.605 349.098 471.004 348.52C471.41 347.934 471.625 347.055 471.648 345.883V345.496C471.648 344.223 471.453 343.25 471.062 342.578C470.672 341.898 469.945 341.559 468.883 341.559C468.094 341.559 467.477 341.898 467.031 342.578C466.586 343.258 466.363 344.238 466.363 345.52C466.363 346.801 466.586 347.766 467.031 348.414C467.484 349.062 468.121 349.387 468.941 349.387ZM482.301 338.898V352H478.727V338.898H482.301ZM480.52 333.766C481.051 333.766 481.508 333.891 481.891 334.141C482.273 334.383 482.465 334.84 482.465 335.512C482.465 336.176 482.273 336.637 481.891 336.895C481.508 337.145 481.051 337.27 480.52 337.27C479.98 337.27 479.52 337.145 479.137 336.895C478.762 336.637 478.574 336.176 478.574 335.512C478.574 334.84 478.762 334.383 479.137 334.141C479.52 333.891 479.98 333.766 480.52 333.766ZM490.211 352.234C488.75 352.234 487.559 351.664 486.637 350.523C485.723 349.375 485.266 347.691 485.266 345.473C485.266 343.23 485.73 341.535 486.66 340.387C487.59 339.23 488.805 338.652 490.305 338.652C490.93 338.652 491.48 338.738 491.957 338.91C492.434 339.082 492.844 339.312 493.188 339.602C493.539 339.891 493.836 340.215 494.078 340.574H494.195C494.148 340.324 494.09 339.957 494.02 339.473C493.957 338.98 493.926 338.477 493.926 337.961V333.766H497.512V352H494.77L494.078 350.301H493.926C493.699 350.66 493.414 350.988 493.07 351.285C492.734 351.574 492.332 351.805 491.863 351.977C491.395 352.148 490.844 352.234 490.211 352.234ZM491.465 349.387C492.441 349.387 493.129 349.098 493.527 348.52C493.934 347.934 494.148 347.055 494.172 345.883V345.496C494.172 344.223 493.977 343.25 493.586 342.578C493.195 341.898 492.469 341.559 491.406 341.559C490.617 341.559 490 341.898 489.555 342.578C489.109 343.258 488.887 344.238 488.887 345.52C488.887 346.801 489.109 347.766 489.555 348.414C490.008 349.062 490.645 349.387 491.465 349.387ZM505.609 338.898H509.523L511.996 346.27C512.074 346.504 512.141 346.742 512.195 346.984C512.25 347.227 512.297 347.477 512.336 347.734C512.375 347.992 512.406 348.262 512.43 348.543H512.5C512.547 348.121 512.609 347.727 512.688 347.359C512.773 346.992 512.879 346.629 513.004 346.27L515.43 338.898H519.262L513.719 353.676C513.383 354.582 512.945 355.336 512.406 355.938C511.867 356.547 511.246 357.004 510.543 357.309C509.848 357.613 509.082 357.766 508.246 357.766C507.84 357.766 507.488 357.742 507.191 357.695C506.895 357.656 506.641 357.613 506.43 357.566V354.73C506.594 354.77 506.801 354.805 507.051 354.836C507.301 354.867 507.562 354.883 507.836 354.883C508.336 354.883 508.766 354.777 509.125 354.566C509.484 354.355 509.785 354.07 510.027 353.711C510.27 353.359 510.461 352.973 510.602 352.551L510.812 351.906L505.609 338.898ZM533.055 345.426C533.055 346.52 532.906 347.488 532.609 348.332C532.32 349.176 531.895 349.891 531.332 350.477C530.777 351.055 530.105 351.492 529.316 351.789C528.535 352.086 527.652 352.234 526.668 352.234C525.746 352.234 524.898 352.086 524.125 351.789C523.359 351.492 522.691 351.055 522.121 350.477C521.559 349.891 521.121 349.176 520.809 348.332C520.504 347.488 520.352 346.52 520.352 345.426C520.352 343.973 520.609 342.742 521.125 341.734C521.641 340.727 522.375 339.961 523.328 339.438C524.281 338.914 525.418 338.652 526.738 338.652C527.965 338.652 529.051 338.914 529.996 339.438C530.949 339.961 531.695 340.727 532.234 341.734C532.781 342.742 533.055 343.973 533.055 345.426ZM523.996 345.426C523.996 346.285 524.09 347.008 524.277 347.594C524.465 348.18 524.758 348.621 525.156 348.918C525.555 349.215 526.074 349.363 526.715 349.363C527.348 349.363 527.859 349.215 528.25 348.918C528.648 348.621 528.938 348.18 529.117 347.594C529.305 347.008 529.398 346.285 529.398 345.426C529.398 344.559 529.305 343.84 529.117 343.27C528.938 342.691 528.648 342.258 528.25 341.969C527.852 341.68 527.332 341.535 526.691 341.535C525.746 341.535 525.059 341.859 524.629 342.508C524.207 343.156 523.996 344.129 523.996 345.426ZM548.031 338.898V352H545.289L544.809 350.324H544.621C544.34 350.77 543.988 351.133 543.566 351.414C543.145 351.695 542.68 351.902 542.172 352.035C541.664 352.168 541.137 352.234 540.59 352.234C539.652 352.234 538.836 352.07 538.141 351.742C537.445 351.406 536.902 350.887 536.512 350.184C536.129 349.48 535.938 348.566 535.938 347.441V338.898H539.512V346.551C539.512 347.488 539.68 348.195 540.016 348.672C540.352 349.148 540.887 349.387 541.621 349.387C542.348 349.387 542.918 349.223 543.332 348.895C543.746 348.559 544.035 348.07 544.199 347.43C544.371 346.781 544.457 345.992 544.457 345.062V338.898H548.031ZM568.785 352L567.777 347.418C567.723 347.145 567.633 346.742 567.508 346.211C567.383 345.672 567.246 345.098 567.098 344.488C566.957 343.871 566.824 343.301 566.699 342.777C566.582 342.254 566.496 341.871 566.441 341.629H566.336C566.281 341.871 566.195 342.254 566.078 342.777C565.961 343.301 565.828 343.871 565.68 344.488C565.539 345.105 565.406 345.688 565.281 346.234C565.156 346.773 565.062 347.184 565 347.465L563.945 352H560.102L556.375 338.898H559.938L561.449 344.699C561.551 345.105 561.648 345.59 561.742 346.152C561.836 346.707 561.918 347.246 561.988 347.77C562.066 348.285 562.125 348.695 562.164 349H562.258C562.273 348.773 562.305 348.473 562.352 348.098C562.406 347.723 562.465 347.336 562.527 346.938C562.598 346.531 562.66 346.168 562.715 345.848C562.777 345.52 562.824 345.297 562.855 345.18L564.473 338.898H568.41L569.945 345.18C570 345.406 570.07 345.766 570.156 346.258C570.25 346.75 570.332 347.258 570.402 347.781C570.473 348.297 570.512 348.703 570.52 349H570.613C570.645 348.734 570.699 348.34 570.777 347.816C570.855 347.293 570.945 346.746 571.047 346.176C571.156 345.598 571.266 345.105 571.375 344.699L572.945 338.898H576.449L572.676 352H568.785ZM583.938 338.629C585.695 338.629 587.043 339.012 587.98 339.777C588.918 340.543 589.387 341.707 589.387 343.27V352H586.891L586.199 350.219H586.105C585.73 350.688 585.348 351.07 584.957 351.367C584.566 351.664 584.117 351.883 583.609 352.023C583.102 352.164 582.484 352.234 581.758 352.234C580.984 352.234 580.289 352.086 579.672 351.789C579.062 351.492 578.582 351.039 578.23 350.43C577.879 349.812 577.703 349.031 577.703 348.086C577.703 346.695 578.191 345.672 579.168 345.016C580.145 344.352 581.609 343.984 583.562 343.914L585.836 343.844V343.27C585.836 342.582 585.656 342.078 585.297 341.758C584.938 341.438 584.438 341.277 583.797 341.277C583.164 341.277 582.543 341.367 581.934 341.547C581.324 341.727 580.715 341.953 580.105 342.227L578.922 339.812C579.617 339.445 580.395 339.156 581.254 338.945C582.121 338.734 583.016 338.629 583.938 338.629ZM585.836 345.93L584.453 345.977C583.297 346.008 582.492 346.215 582.039 346.598C581.594 346.98 581.371 347.484 581.371 348.109C581.371 348.656 581.531 349.047 581.852 349.281C582.172 349.508 582.59 349.621 583.105 349.621C583.871 349.621 584.516 349.395 585.039 348.941C585.57 348.488 585.836 347.844 585.836 347.008V345.93ZM600.52 338.652C601.918 338.652 603.043 339.035 603.895 339.801C604.746 340.559 605.172 341.777 605.172 343.457V352H601.598V344.348C601.598 343.41 601.426 342.703 601.082 342.227C600.746 341.75 600.215 341.512 599.488 341.512C598.395 341.512 597.648 341.883 597.25 342.625C596.852 343.367 596.652 344.438 596.652 345.836V352H593.078V338.898H595.809L596.289 340.574H596.488C596.77 340.121 597.117 339.754 597.531 339.473C597.953 339.191 598.418 338.984 598.926 338.852C599.441 338.719 599.973 338.652 600.52 338.652ZM614.371 349.387C614.762 349.387 615.141 349.348 615.508 349.27C615.883 349.191 616.254 349.094 616.621 348.977V351.637C616.238 351.809 615.762 351.949 615.191 352.059C614.629 352.176 614.012 352.234 613.34 352.234C612.559 352.234 611.855 352.109 611.23 351.859C610.613 351.602 610.125 351.16 609.766 350.535C609.414 349.902 609.238 349.023 609.238 347.898V341.582H607.527V340.07L609.496 338.875L610.527 336.109H612.812V338.898H616.48V341.582H612.812V347.898C612.812 348.398 612.953 348.773 613.234 349.023C613.523 349.266 613.902 349.387 614.371 349.387ZM631.035 349.387C631.426 349.387 631.805 349.348 632.172 349.27C632.547 349.191 632.918 349.094 633.285 348.977V351.637C632.902 351.809 632.426 351.949 631.855 352.059C631.293 352.176 630.676 352.234 630.004 352.234C629.223 352.234 628.52 352.109 627.895 351.859C627.277 351.602 626.789 351.16 626.43 350.535C626.078 349.902 625.902 349.023 625.902 347.898V341.582H624.191V340.07L626.16 338.875L627.191 336.109H629.477V338.898H633.145V341.582H629.477V347.898C629.477 348.398 629.617 348.773 629.898 349.023C630.188 349.266 630.566 349.387 631.035 349.387ZM647.852 345.426C647.852 346.52 647.703 347.488 647.406 348.332C647.117 349.176 646.691 349.891 646.129 350.477C645.574 351.055 644.902 351.492 644.113 351.789C643.332 352.086 642.449 352.234 641.465 352.234C640.543 352.234 639.695 352.086 638.922 351.789C638.156 351.492 637.488 351.055 636.918 350.477C636.355 349.891 635.918 349.176 635.605 348.332C635.301 347.488 635.148 346.52 635.148 345.426C635.148 343.973 635.406 342.742 635.922 341.734C636.438 340.727 637.172 339.961 638.125 339.438C639.078 338.914 640.215 338.652 641.535 338.652C642.762 338.652 643.848 338.914 644.793 339.438C645.746 339.961 646.492 340.727 647.031 341.734C647.578 342.742 647.852 343.973 647.852 345.426ZM638.793 345.426C638.793 346.285 638.887 347.008 639.074 347.594C639.262 348.18 639.555 348.621 639.953 348.918C640.352 349.215 640.871 349.363 641.512 349.363C642.145 349.363 642.656 349.215 643.047 348.918C643.445 348.621 643.734 348.18 643.914 347.594C644.102 347.008 644.195 346.285 644.195 345.426C644.195 344.559 644.102 343.84 643.914 343.27C643.734 342.691 643.445 342.258 643.047 341.969C642.648 341.68 642.129 341.535 641.488 341.535C640.543 341.535 639.855 341.859 639.426 342.508C639.004 343.156 638.793 344.129 638.793 345.426ZM660.613 352H657.039V333.766H660.613V352ZM669.777 338.652C670.988 338.652 672.031 338.887 672.906 339.355C673.781 339.816 674.457 340.488 674.934 341.371C675.41 342.254 675.648 343.332 675.648 344.605V346.34H667.199C667.238 347.348 667.539 348.141 668.102 348.719C668.672 349.289 669.461 349.574 670.469 349.574C671.305 349.574 672.07 349.488 672.766 349.316C673.461 349.145 674.176 348.887 674.91 348.543V351.309C674.262 351.629 673.582 351.863 672.871 352.012C672.168 352.16 671.312 352.234 670.305 352.234C668.992 352.234 667.828 351.992 666.812 351.508C665.805 351.023 665.012 350.285 664.434 349.293C663.863 348.301 663.578 347.051 663.578 345.543C663.578 344.012 663.836 342.738 664.352 341.723C664.875 340.699 665.602 339.934 666.531 339.426C667.461 338.91 668.543 338.652 669.777 338.652ZM669.801 341.195C669.105 341.195 668.527 341.418 668.066 341.863C667.613 342.309 667.352 343.008 667.281 343.961H672.297C672.289 343.43 672.191 342.957 672.004 342.543C671.824 342.129 671.551 341.801 671.184 341.559C670.824 341.316 670.363 341.195 669.801 341.195ZM683.922 338.629C685.68 338.629 687.027 339.012 687.965 339.777C688.902 340.543 689.371 341.707 689.371 343.27V352H686.875L686.184 350.219H686.09C685.715 350.688 685.332 351.07 684.941 351.367C684.551 351.664 684.102 351.883 683.594 352.023C683.086 352.164 682.469 352.234 681.742 352.234C680.969 352.234 680.273 352.086 679.656 351.789C679.047 351.492 678.566 351.039 678.215 350.43C677.863 349.812 677.688 349.031 677.688 348.086C677.688 346.695 678.176 345.672 679.152 345.016C680.129 344.352 681.594 343.984 683.547 343.914L685.82 343.844V343.27C685.82 342.582 685.641 342.078 685.281 341.758C684.922 341.438 684.422 341.277 683.781 341.277C683.148 341.277 682.527 341.367 681.918 341.547C681.309 341.727 680.699 341.953 680.09 342.227L678.906 339.812C679.602 339.445 680.379 339.156 681.238 338.945C682.105 338.734 683 338.629 683.922 338.629ZM685.82 345.93L684.438 345.977C683.281 346.008 682.477 346.215 682.023 346.598C681.578 346.98 681.355 347.484 681.355 348.109C681.355 348.656 681.516 349.047 681.836 349.281C682.156 349.508 682.574 349.621 683.09 349.621C683.855 349.621 684.5 349.395 685.023 348.941C685.555 348.488 685.82 347.844 685.82 347.008V345.93ZM700.375 338.652C700.555 338.652 700.762 338.664 700.996 338.688C701.238 338.703 701.434 338.727 701.582 338.758L701.312 342.109C701.195 342.07 701.027 342.043 700.809 342.027C700.598 342.004 700.414 341.992 700.258 341.992C699.797 341.992 699.348 342.051 698.91 342.168C698.48 342.285 698.094 342.477 697.75 342.742C697.406 343 697.133 343.344 696.93 343.773C696.734 344.195 696.637 344.715 696.637 345.332V352H693.062V338.898H695.77L696.297 341.102H696.473C696.73 340.656 697.051 340.25 697.434 339.883C697.824 339.508 698.266 339.211 698.758 338.992C699.258 338.766 699.797 338.652 700.375 338.652ZM711.402 338.652C712.801 338.652 713.926 339.035 714.777 339.801C715.629 340.559 716.055 341.777 716.055 343.457V352H712.48V344.348C712.48 343.41 712.309 342.703 711.965 342.227C711.629 341.75 711.098 341.512 710.371 341.512C709.277 341.512 708.531 341.883 708.133 342.625C707.734 343.367 707.535 344.438 707.535 345.836V352H703.961V338.898H706.691L707.172 340.574H707.371C707.652 340.121 708 339.754 708.414 339.473C708.836 339.191 709.301 338.984 709.809 338.852C710.324 338.719 710.855 338.652 711.402 338.652ZM731.336 338.629C733.094 338.629 734.441 339.012 735.379 339.777C736.316 340.543 736.785 341.707 736.785 343.27V352H734.289L733.598 350.219H733.504C733.129 350.688 732.746 351.07 732.355 351.367C731.965 351.664 731.516 351.883 731.008 352.023C730.5 352.164 729.883 352.234 729.156 352.234C728.383 352.234 727.688 352.086 727.07 351.789C726.461 351.492 725.98 351.039 725.629 350.43C725.277 349.812 725.102 349.031 725.102 348.086C725.102 346.695 725.59 345.672 726.566 345.016C727.543 344.352 729.008 343.984 730.961 343.914L733.234 343.844V343.27C733.234 342.582 733.055 342.078 732.695 341.758C732.336 341.438 731.836 341.277 731.195 341.277C730.562 341.277 729.941 341.367 729.332 341.547C728.723 341.727 728.113 341.953 727.504 342.227L726.32 339.812C727.016 339.445 727.793 339.156 728.652 338.945C729.52 338.734 730.414 338.629 731.336 338.629ZM733.234 345.93L731.852 345.977C730.695 346.008 729.891 346.215 729.438 346.598C728.992 346.98 728.77 347.484 728.77 348.109C728.77 348.656 728.93 349.047 729.25 349.281C729.57 349.508 729.988 349.621 730.504 349.621C731.27 349.621 731.914 349.395 732.438 348.941C732.969 348.488 733.234 347.844 733.234 347.008V345.93ZM744.051 333.766V338.008C744.051 338.5 744.035 338.988 744.004 339.473C743.98 339.957 743.949 340.332 743.91 340.598H744.051C744.395 340.059 744.863 339.602 745.457 339.227C746.051 338.844 746.82 338.652 747.766 338.652C749.234 338.652 750.426 339.227 751.34 340.375C752.254 341.523 752.711 343.207 752.711 345.426C752.711 346.918 752.5 348.172 752.078 349.188C751.656 350.195 751.066 350.957 750.309 351.473C749.551 351.98 748.672 352.234 747.672 352.234C746.711 352.234 745.953 352.062 745.398 351.719C744.844 351.375 744.395 350.988 744.051 350.559H743.805L743.207 352H740.477V333.766H744.051ZM746.617 341.512C745.992 341.512 745.496 341.641 745.129 341.898C744.762 342.156 744.492 342.543 744.32 343.059C744.156 343.574 744.066 344.227 744.051 345.016V345.402C744.051 346.676 744.238 347.652 744.613 348.332C744.988 349.004 745.672 349.34 746.664 349.34C747.398 349.34 747.98 349 748.41 348.32C748.848 347.641 749.066 346.66 749.066 345.379C749.066 344.098 748.848 343.133 748.41 342.484C747.973 341.836 747.375 341.512 746.617 341.512ZM767.57 345.426C767.57 346.52 767.422 347.488 767.125 348.332C766.836 349.176 766.41 349.891 765.848 350.477C765.293 351.055 764.621 351.492 763.832 351.789C763.051 352.086 762.168 352.234 761.184 352.234C760.262 352.234 759.414 352.086 758.641 351.789C757.875 351.492 757.207 351.055 756.637 350.477C756.074 349.891 755.637 349.176 755.324 348.332C755.02 347.488 754.867 346.52 754.867 345.426C754.867 343.973 755.125 342.742 755.641 341.734C756.156 340.727 756.891 339.961 757.844 339.438C758.797 338.914 759.934 338.652 761.254 338.652C762.48 338.652 763.566 338.914 764.512 339.438C765.465 339.961 766.211 340.727 766.75 341.734C767.297 342.742 767.57 343.973 767.57 345.426ZM758.512 345.426C758.512 346.285 758.605 347.008 758.793 347.594C758.98 348.18 759.273 348.621 759.672 348.918C760.07 349.215 760.59 349.363 761.23 349.363C761.863 349.363 762.375 349.215 762.766 348.918C763.164 348.621 763.453 348.18 763.633 347.594C763.82 347.008 763.914 346.285 763.914 345.426C763.914 344.559 763.82 343.84 763.633 343.27C763.453 342.691 763.164 342.258 762.766 341.969C762.367 341.68 761.848 341.535 761.207 341.535C760.262 341.535 759.574 341.859 759.145 342.508C758.723 343.156 758.512 344.129 758.512 345.426ZM782.547 338.898V352H779.805L779.324 350.324H779.137C778.855 350.77 778.504 351.133 778.082 351.414C777.66 351.695 777.195 351.902 776.688 352.035C776.18 352.168 775.652 352.234 775.105 352.234C774.168 352.234 773.352 352.07 772.656 351.742C771.961 351.406 771.418 350.887 771.027 350.184C770.645 349.48 770.453 348.566 770.453 347.441V338.898H774.027V346.551C774.027 347.488 774.195 348.195 774.531 348.672C774.867 349.148 775.402 349.387 776.137 349.387C776.863 349.387 777.434 349.223 777.848 348.895C778.262 348.559 778.551 348.07 778.715 347.43C778.887 346.781 778.973 345.992 778.973 345.062V338.898H782.547ZM791.816 349.387C792.207 349.387 792.586 349.348 792.953 349.27C793.328 349.191 793.699 349.094 794.066 348.977V351.637C793.684 351.809 793.207 351.949 792.637 352.059C792.074 352.176 791.457 352.234 790.785 352.234C790.004 352.234 789.301 352.109 788.676 351.859C788.059 351.602 787.57 351.16 787.211 350.535C786.859 349.902 786.684 349.023 786.684 347.898V341.582H784.973V340.07L786.941 338.875L787.973 336.109H790.258V338.898H793.926V341.582H790.258V347.898C790.258 348.398 790.398 348.773 790.68 349.023C790.969 349.266 791.348 349.387 791.816 349.387ZM818.348 338.652C819.832 338.652 820.953 339.035 821.711 339.801C822.477 340.559 822.859 341.777 822.859 343.457V352H819.273V344.348C819.273 343.41 819.113 342.703 818.793 342.227C818.473 341.75 817.977 341.512 817.305 341.512C816.359 341.512 815.688 341.852 815.289 342.531C814.891 343.203 814.691 344.168 814.691 345.426V352H811.117V344.348C811.117 343.723 811.047 343.199 810.906 342.777C810.766 342.355 810.551 342.039 810.262 341.828C809.973 341.617 809.602 341.512 809.148 341.512C808.484 341.512 807.961 341.68 807.578 342.016C807.203 342.344 806.934 342.832 806.77 343.48C806.613 344.121 806.535 344.906 806.535 345.836V352H802.961V338.898H805.691L806.172 340.574H806.371C806.637 340.121 806.969 339.754 807.367 339.473C807.773 339.191 808.219 338.984 808.703 338.852C809.188 338.719 809.68 338.652 810.18 338.652C811.141 338.652 811.953 338.809 812.617 339.121C813.289 339.434 813.805 339.918 814.164 340.574H814.48C814.871 339.902 815.422 339.414 816.133 339.109C816.852 338.805 817.59 338.652 818.348 338.652ZM831.941 338.652C833.152 338.652 834.195 338.887 835.07 339.355C835.945 339.816 836.621 340.488 837.098 341.371C837.574 342.254 837.812 343.332 837.812 344.605V346.34H829.363C829.402 347.348 829.703 348.141 830.266 348.719C830.836 349.289 831.625 349.574 832.633 349.574C833.469 349.574 834.234 349.488 834.93 349.316C835.625 349.145 836.34 348.887 837.074 348.543V351.309C836.426 351.629 835.746 351.863 835.035 352.012C834.332 352.16 833.477 352.234 832.469 352.234C831.156 352.234 829.992 351.992 828.977 351.508C827.969 351.023 827.176 350.285 826.598 349.293C826.027 348.301 825.742 347.051 825.742 345.543C825.742 344.012 826 342.738 826.516 341.723C827.039 340.699 827.766 339.934 828.695 339.426C829.625 338.91 830.707 338.652 831.941 338.652ZM831.965 341.195C831.27 341.195 830.691 341.418 830.23 341.863C829.777 342.309 829.516 343.008 829.445 343.961H834.461C834.453 343.43 834.355 342.957 834.168 342.543C833.988 342.129 833.715 341.801 833.348 341.559C832.988 341.316 832.527 341.195 831.965 341.195ZM840.215 350.324C840.215 349.59 840.414 349.074 840.812 348.777C841.219 348.48 841.707 348.332 842.277 348.332C842.832 348.332 843.309 348.48 843.707 348.777C844.113 349.074 844.316 349.59 844.316 350.324C844.316 351.027 844.113 351.535 843.707 351.848C843.309 352.16 842.832 352.316 842.277 352.316C841.707 352.316 841.219 352.16 840.812 351.848C840.414 351.535 840.215 351.027 840.215 350.324ZM840.215 340.645C840.215 339.91 840.414 339.395 840.812 339.098C841.219 338.801 841.707 338.652 842.277 338.652C842.832 338.652 843.309 338.801 843.707 339.098C844.113 339.395 844.316 339.91 844.316 340.645C844.316 341.355 844.113 341.867 843.707 342.18C843.309 342.484 842.832 342.637 842.277 342.637C841.707 342.637 841.219 342.484 840.812 342.18C840.414 341.867 840.215 341.355 840.215 340.645Z" fill="white"/>
<path d="M343.578 392.375C342.797 392.042 342.13 391.812 341.578 391.688C341.026 391.562 340.51 391.5 340.031 391.5C339.427 391.5 338.797 391.688 338.141 392.062C337.495 392.427 336.906 392.87 336.375 393.391V389.781C336.906 389.219 337.5 388.797 338.156 388.516C338.823 388.224 339.562 388.078 340.375 388.078C341 388.078 341.625 388.141 342.25 388.266C342.875 388.38 343.693 388.651 344.703 389.078C345.484 389.411 346.151 389.641 346.703 389.766C347.266 389.88 347.781 389.938 348.25 389.938C348.865 389.938 349.495 389.755 350.141 389.391C350.786 389.026 351.37 388.578 351.891 388.047V391.656C351.37 392.219 350.776 392.646 350.109 392.938C349.453 393.219 348.714 393.359 347.891 393.359C347.266 393.359 346.641 393.302 346.016 393.188C345.401 393.062 344.589 392.792 343.578 392.375ZM357.828 379.156L366.344 402H362.016L353.5 379.156H357.828Z" fill="white"/>
<rect x="383" y="368" width="214" height="43" rx="8" fill="#353535"/>
<path d="M408.883 399H399.344V381.867H408.883V383.625H401.336V389.168H408.449V390.902H401.336V397.242H408.883V399ZM415.445 392.426L411.004 386.156H413.23L416.617 391.102L419.992 386.156H422.195L417.754 392.426L422.441 399H420.215L416.617 393.762L412.996 399H410.793L415.445 392.426ZM424.656 397.781C424.656 397.234 424.789 396.848 425.055 396.621C425.32 396.387 425.645 396.27 426.027 396.27C426.426 396.27 426.762 396.387 427.035 396.621C427.309 396.848 427.445 397.234 427.445 397.781C427.445 398.32 427.309 398.715 427.035 398.965C426.762 399.207 426.426 399.328 426.027 399.328C425.645 399.328 425.32 399.207 425.055 398.965C424.789 398.715 424.656 398.32 424.656 397.781ZM424.656 387.387C424.656 386.824 424.789 386.43 425.055 386.203C425.32 385.969 425.645 385.852 426.027 385.852C426.426 385.852 426.762 385.969 427.035 386.203C427.309 386.43 427.445 386.824 427.445 387.387C427.445 387.918 427.309 388.305 427.035 388.547C426.762 388.789 426.426 388.91 426.027 388.91C425.645 388.91 425.32 388.789 425.055 388.547C424.789 388.305 424.656 387.918 424.656 387.387ZM441.074 404.766C439.387 404.766 438.086 404.449 437.172 403.816C436.258 403.191 435.801 402.312 435.801 401.18C435.801 400.375 436.055 399.688 436.562 399.117C437.078 398.547 437.789 398.168 438.695 397.98C438.359 397.824 438.07 397.59 437.828 397.277C437.594 396.965 437.477 396.605 437.477 396.199C437.477 395.73 437.605 395.32 437.863 394.969C438.129 394.609 438.531 394.266 439.07 393.938C438.398 393.664 437.852 393.203 437.43 392.555C437.016 391.898 436.809 391.137 436.809 390.27C436.809 389.348 437 388.562 437.383 387.914C437.766 387.258 438.32 386.758 439.047 386.414C439.773 386.07 440.652 385.898 441.684 385.898C441.91 385.898 442.137 385.91 442.363 385.934C442.598 385.949 442.82 385.977 443.031 386.016C443.242 386.047 443.426 386.086 443.582 386.133H447.988V387.387L445.621 387.68C445.855 387.984 446.051 388.352 446.207 388.781C446.363 389.211 446.441 389.688 446.441 390.211C446.441 391.492 446.008 392.512 445.141 393.27C444.273 394.02 443.082 394.395 441.566 394.395C441.207 394.395 440.84 394.363 440.465 394.301C440.082 394.512 439.789 394.746 439.586 395.004C439.391 395.262 439.293 395.559 439.293 395.895C439.293 396.145 439.367 396.344 439.516 396.492C439.672 396.641 439.895 396.75 440.184 396.82C440.473 396.883 440.82 396.914 441.227 396.914H443.488C444.887 396.914 445.957 397.207 446.699 397.793C447.449 398.379 447.824 399.234 447.824 400.359C447.824 401.781 447.246 402.871 446.09 403.629C444.934 404.387 443.262 404.766 441.074 404.766ZM441.133 403.242C442.195 403.242 443.074 403.133 443.77 402.914C444.473 402.703 444.996 402.395 445.34 401.988C445.691 401.59 445.867 401.113 445.867 400.559C445.867 400.043 445.75 399.652 445.516 399.387C445.281 399.129 444.938 398.957 444.484 398.871C444.031 398.777 443.477 398.73 442.82 398.73H440.594C440.016 398.73 439.512 398.82 439.082 399C438.652 399.18 438.32 399.445 438.086 399.797C437.859 400.148 437.746 400.586 437.746 401.109C437.746 401.805 438.039 402.332 438.625 402.691C439.211 403.059 440.047 403.242 441.133 403.242ZM441.637 392.977C442.566 392.977 443.266 392.742 443.734 392.273C444.203 391.805 444.438 391.121 444.438 390.223C444.438 389.262 444.199 388.543 443.723 388.066C443.246 387.582 442.543 387.34 441.613 387.34C440.723 387.34 440.035 387.59 439.551 388.09C439.074 388.582 438.836 389.305 438.836 390.258C438.836 391.133 439.078 391.805 439.562 392.273C440.047 392.742 440.738 392.977 441.637 392.977ZM452.465 386.156V399H450.52V386.156H452.465ZM451.516 381.352C451.836 381.352 452.109 381.457 452.336 381.668C452.57 381.871 452.688 382.191 452.688 382.629C452.688 383.059 452.57 383.379 452.336 383.59C452.109 383.801 451.836 383.906 451.516 383.906C451.18 383.906 450.898 383.801 450.672 383.59C450.453 383.379 450.344 383.059 450.344 382.629C450.344 382.191 450.453 381.871 450.672 381.668C450.898 381.457 451.18 381.352 451.516 381.352ZM460.738 397.641C461.059 397.641 461.387 397.613 461.723 397.559C462.059 397.504 462.332 397.438 462.543 397.359V398.871C462.316 398.973 462 399.059 461.594 399.129C461.195 399.199 460.805 399.234 460.422 399.234C459.742 399.234 459.125 399.117 458.57 398.883C458.016 398.641 457.57 398.234 457.234 397.664C456.906 397.094 456.742 396.305 456.742 395.297V387.68H454.914V386.73L456.754 385.969L457.527 383.18H458.699V386.156H462.461V387.68H458.699V395.238C458.699 396.043 458.883 396.645 459.25 397.043C459.625 397.441 460.121 397.641 460.738 397.641ZM467.09 380.766V386.215C467.09 386.527 467.082 386.844 467.066 387.164C467.051 387.477 467.023 387.766 466.984 388.031H467.113C467.379 387.578 467.715 387.199 468.121 386.895C468.535 386.582 469.004 386.348 469.527 386.191C470.051 386.027 470.605 385.945 471.191 385.945C472.223 385.945 473.082 386.109 473.77 386.438C474.465 386.766 474.984 387.273 475.328 387.961C475.68 388.648 475.855 389.539 475.855 390.633V399H473.934V390.762C473.934 389.691 473.688 388.891 473.195 388.359C472.711 387.828 471.965 387.562 470.957 387.562C470.004 387.562 469.242 387.746 468.672 388.113C468.109 388.473 467.703 389.004 467.453 389.707C467.211 390.41 467.09 391.27 467.09 392.285V399H465.145V380.766H467.09ZM490.469 386.156V399H488.875L488.594 397.195H488.488C488.223 397.641 487.879 398.016 487.457 398.32C487.035 398.625 486.559 398.852 486.027 399C485.504 399.156 484.945 399.234 484.352 399.234C483.336 399.234 482.484 399.07 481.797 398.742C481.109 398.414 480.59 397.906 480.238 397.219C479.895 396.531 479.723 395.648 479.723 394.57V386.156H481.691V394.43C481.691 395.5 481.934 396.301 482.418 396.832C482.902 397.355 483.641 397.617 484.633 397.617C485.586 397.617 486.344 397.438 486.906 397.078C487.477 396.719 487.887 396.191 488.137 395.496C488.387 394.793 488.512 393.934 488.512 392.918V386.156H490.469ZM496.527 380.766V385.324C496.527 385.848 496.512 386.355 496.48 386.848C496.457 387.34 496.438 387.723 496.422 387.996H496.527C496.879 387.418 497.387 386.93 498.051 386.531C498.715 386.133 499.562 385.934 500.594 385.934C502.203 385.934 503.484 386.492 504.438 387.609C505.398 388.719 505.879 390.371 505.879 392.566C505.879 394.012 505.66 395.23 505.223 396.223C504.785 397.215 504.168 397.965 503.371 398.473C502.574 398.98 501.633 399.234 500.547 399.234C499.531 399.234 498.695 399.047 498.039 398.672C497.391 398.289 496.891 397.824 496.539 397.277H496.387L495.988 399H494.582V380.766H496.527ZM500.277 387.562C499.348 387.562 498.609 387.746 498.062 388.113C497.516 388.473 497.121 389.02 496.879 389.754C496.645 390.48 496.527 391.402 496.527 392.52V392.625C496.527 394.242 496.797 395.48 497.336 396.34C497.875 397.191 498.855 397.617 500.277 397.617C501.473 397.617 502.367 397.18 502.961 396.305C503.562 395.43 503.863 394.18 503.863 392.555C503.863 390.898 503.566 389.652 502.973 388.816C502.387 387.98 501.488 387.562 500.277 387.562Z" fill="#D1D1D1"/>
<defs>
<linearGradient id="paint0_linear_7_6" x1="1410" y1="374.062" x2="720.02" y2="384.729" gradientUnits="userSpaceOnUse">
<stop stop-color="#035E7B"/>
<stop offset="1" stop-color="#141B1D"/>
</linearGradient>
</defs>
</svg>
